<svg width="42" height="34" viewBox="0 0 42 34" fill="none" xmlns="http://www.w3.org/2000/svg">
<path d="M38.3828 13.0368L37.3993 10.5671L35.6554 6.1875C34.1582 2.42842 30.5874 0 26.5562 0H15.4437C11.4135 0 7.84175 2.42842 6.34462 6.1875L4.60075 10.5671L3.61725 13.0368C1.50675 13.8428 0 15.8783 0 18.2812V22.5C0 23.9168 0.539 25.1956 1.4 26.1853V30.9375C1.4 32.4905 2.65387 33.75 4.2 33.75H7C8.54612 33.75 9.8 32.4905 9.8 30.9375V28.125H32.2V30.9375C32.2 32.4905 33.4539 33.75 35 33.75H37.8C39.3461 33.75 40.6 32.4905 40.6 30.9375V26.1853C41.461 25.1965 42 23.9177 42 22.5V18.2812C42 15.8783 40.4932 13.8428 38.3828 13.0368ZM11.5439 8.27666C12.1817 6.67529 13.7261 5.625 15.4437 5.625H26.5562C28.2739 5.625 29.8183 6.67529 30.4561 8.27666L32.2 12.6562H9.8L11.5439 8.27666ZM7 22.4824C5.32 22.4824 4.2 21.3609 4.2 19.6787C4.2 17.9965 5.32 16.875 7 16.875C8.68 16.875 11.2 19.3983 11.2 21.0806C11.2 22.7628 8.68 22.4824 7 22.4824ZM35 22.4824C33.32 22.4824 30.8 22.7628 30.8 21.0806C30.8 19.3983 33.32 16.875 35 16.875C36.68 16.875 37.8 17.9965 37.8 19.6787C37.8 21.3609 36.68 22.4824 35 22.4824Z" fill="white"/>
</svg>
