<svg width="51" height="54" viewBox="0 0 51 54" fill="none" xmlns="http://www.w3.org/2000/svg">
<path d="M45.5893 0H18.807C15.8258 0 13.4135 2.41181 13.4135 5.39236V20.5151L0.796438 32.9685C0.418397 33.3423 0.159955 33.82 0.0539105 34.3409C-0.0521336 34.8618 -0.000999 35.4024 0.200825 35.8943C0.402649 36.3861 0.746063 36.8068 1.18748 37.1032C1.62891 37.3995 2.14843 37.5581 2.68014 37.5587V50.9725C2.68014 51.684 2.96285 52.3664 3.46607 52.8695C3.96929 53.3726 4.65181 53.6553 5.36347 53.6553H48.2968C49.0085 53.6553 49.691 53.3726 50.1942 52.8695C50.6974 52.3664 50.9801 51.684 50.9801 50.9725V5.38967C50.9801 2.4118 48.5705 0 45.5893 0ZM23.9375 35.1737V48.2897H8.0468V33.3521L16.0619 25.4406L23.9375 33.497V35.1737ZM29.5135 18.7793H24.1468V13.4138H29.5135V18.7793ZM40.2468 40.2415H34.8801V34.8759H40.2468V40.2415ZM40.2468 29.5104H34.8801V24.1449H40.2468V29.5104ZM40.2468 18.7793H34.8801V13.4138H40.2468V18.7793Z" fill="white"/>
<path d="M13 35H18.3667V40.3667H13V35Z" fill="white"/>
</svg>
