<svg width="60" height="60" viewBox="0 0 60 60" fill="none" xmlns="http://www.w3.org/2000/svg">
<path d="M39.2599 25.6737C38.6061 21.0563 37.0052 14.6414 33.1175 9.2676C33.0084 9.11684 32.7956 9.08278 32.6451 9.19222C27.0829 13.2312 23.8806 19.0935 22.1403 23.4768C20.9191 26.5524 20.2371 29.3203 19.8794 31.1039C19.8425 31.2877 19.9711 31.4635 20.1572 31.485L39.402 33.7071C39.5908 33.7289 39.7573 33.5835 39.7598 33.3935C39.7818 31.6079 39.7104 28.8543 39.2599 25.6737Z" fill="#FF5134"/>
<path d="M28.4198 8.09326C23.2175 8.21968 17.8944 9.92416 13.3948 12.9673C8.40655 16.3412 5.0931 20.8751 3.88947 25.9049C3.78975 26.3218 4.03368 26.7445 4.44207 26.8749L16.3839 30.6867C16.7536 28.7712 17.4833 25.7243 18.8424 22.2787C21.1327 16.4723 24.4006 11.6501 28.4198 8.09326Z" fill="#FF5134"/>
<path d="M32.2663 4.75701L34.6644 5.03395C34.8685 5.05747 35.0722 5.08393 35.2758 5.11225L35.6957 1.98994C35.8249 1.02896 35.1507 0.145116 34.1896 0.0158922C33.2275 -0.113448 32.3446 0.560877 32.2155 1.52198L31.7871 4.70773C31.947 4.7233 32.1069 4.73863 32.2663 4.75701Z" fill="#FF5134"/>
<path d="M28.6747 53.0923L29.6715 45.8154L29.8121 45.8355C29.8962 45.8476 29.9798 45.8534 30.0625 45.8534C31.2294 45.8534 32.1966 44.6888 31.6688 43.3306C31.4688 42.8161 30.9953 42.4574 30.4488 42.3794L30.1481 42.3364L30.9792 36.2696L27.49 35.8667L26.6719 41.84L26.4762 41.812C25.9252 41.7334 25.367 41.9496 25.0305 42.3927C24.0916 43.629 24.849 45.1268 26.1189 45.3081L26.1952 45.319L25.1788 52.7391C23.3577 52.5956 21.4957 52.5136 19.591 52.5136C10.2314 52.5136 3.26757 53.7969 0.889698 54.3019C0.370815 54.412 0 54.8695 0 55.3999V58.8776C0 59.4975 0.502496 60 1.12239 60H58.8031C59.4229 60 59.9254 59.4975 59.9254 58.8776V58.3822C59.9254 57.7758 59.4438 57.2758 58.8376 57.2604C50.5461 57.0514 40.5391 54.547 28.6747 53.0923Z" fill="#FF5134"/>
<path d="M55.6574 32.7901C56.081 32.7557 56.4122 32.4048 56.4149 31.9798C56.4476 26.7547 54.4286 21.5897 50.6095 17.2337C47.0557 13.1806 42.2831 10.2924 37.1973 9.05029C39.9853 13.5489 41.8849 19.0743 42.7516 25.2748C43.253 28.8615 43.3085 31.9028 43.2696 33.7961L55.6574 32.7901Z" fill="#FF5134"/>
</svg>
