<svg width="39" height="60" viewBox="0 0 39 60" fill="none" xmlns="http://www.w3.org/2000/svg">
<path d="M19.4671 9.95813L16.6116 15.744L10.2266 16.6718L14.8468 21.1756L13.7561 27.5348L19.4671 24.5324L25.1782 27.5348L24.0875 21.1756L28.7077 16.6718L22.3227 15.744L19.4671 9.95813Z" fill="#FF5134"/>
<path d="M19.4666 0C8.71547 0 0 8.71547 0 19.4666C0 30.2177 8.71547 38.9332 19.4666 38.9332C30.2177 38.9332 38.9332 30.2177 38.9332 19.4666C38.9332 8.71547 30.2177 0 19.4666 0ZM31.3159 19.0384L27.8644 22.4029L28.6792 27.1536C28.9001 28.4419 28.3805 29.7195 27.3231 30.4877C26.7255 30.9219 26.0264 31.1425 25.3226 31.1425C24.7808 31.1425 24.2362 31.0118 23.733 30.7472L19.4666 28.5042L15.2002 30.7472C14.0433 31.3555 12.6676 31.256 11.6101 30.4877C10.5527 29.7195 10.033 28.4419 10.254 27.1536L11.0688 22.4029L7.61719 19.0384C6.68121 18.1261 6.35063 16.7871 6.75457 15.544C7.15852 14.3009 8.21297 13.4119 9.50648 13.2239L14.2765 12.5307L16.4096 8.2084C16.9882 7.03629 18.1595 6.3082 19.4666 6.3082C20.7737 6.3082 21.945 7.03629 22.5236 8.2084L24.6567 12.5307L29.4267 13.2239C30.7202 13.4119 31.7747 14.3009 32.1786 15.544C32.5826 16.7871 32.252 18.1261 31.3159 19.0384Z" fill="#FF5134"/>
<path d="M28.4125 40.6413C26.0783 41.6286 23.6257 42.2142 21.1016 42.3908L25.4187 60L30.2395 55.1322L36.3346 57.3238L31.8076 38.8585C30.7321 39.5438 29.5987 40.1396 28.4125 40.6413Z" fill="#FF5134"/>
<path d="M10.5208 40.6414C9.33617 40.1403 8.20426 39.5455 7.12988 38.8612L2.60352 57.3239L8.69867 55.1323L13.5194 60.0001L17.8365 42.3912C15.3107 42.215 12.8565 41.6293 10.5208 40.6414Z" fill="#FF5134"/>
</svg>
