<svg width="60" height="60" viewBox="0 0 60 60" fill="none" xmlns="http://www.w3.org/2000/svg">
<path d="M38.9108 1.3241C26.4728 5.14945 17.6953 16.9494 17.6953 30C17.6953 30.5916 17.7567 31.1678 17.7908 31.7509C21.1521 31.7339 24.6588 30.7814 28.4657 28.8459C29.404 18.2478 36.0986 10.0522 47.3857 5.53863C44.8247 3.71648 41.9798 2.27085 38.9108 1.3241Z" fill="#FF5134"/>
<path d="M50.5639 8.15051C45.3074 9.99926 39.6313 13.2107 35.916 18.3398C46.7175 20.4648 55.4304 28.2758 58.6545 38.8729C59.5282 36.0687 59.9992 33.0884 59.9992 30C59.9992 21.4348 56.3568 13.6042 50.5639 8.15051Z" fill="#FF5134"/>
<path d="M55.57 40.6671C52.8182 30.5032 44.3749 23.056 33.9985 21.5264C32.9709 23.6646 32.2959 26.1114 32.0176 28.8559C42.0271 32.8396 47.1911 43.2447 49.0222 53.1202C51.9608 50.7131 54.4296 47.7569 56.2798 44.4112C56.1252 43.1587 55.9065 41.9088 55.57 40.6671Z" fill="#FF5134"/>
<path d="M30.19 31.9127C25.7843 34.1727 21.7034 35.2734 17.6953 35.2734C11.7255 35.2734 5.20242 33.2365 0.0448828 29.1125C0.0360937 29.41 0 29.7005 0 30C0 33.8642 0.761367 37.5476 2.10246 40.9404C3.51797 40.8181 8.19562 45.8203 17.6953 45.8203C25.3162 45.8203 32.4968 42.3738 37.2004 36.3663C35.2372 34.4358 32.9071 32.9009 30.19 31.9127Z" fill="#FF5134"/>
<path d="M32.5741 0.124453C31.7615 0.0577734 30.9461 0 30.1166 0C15.4011 0 2.93176 10.8179 0.476562 24.8407C4.22223 28.4655 9.11785 30.7677 14.2602 31.4896C14.2381 30.9918 14.1791 30.5036 14.1791 30C14.1791 17.3532 21.5798 5.74781 32.5741 0.124453Z" fill="#FF5134"/>
<path d="M39.5221 39.0419C34.1534 45.5781 26.1773 49.336 17.6953 49.336C13.2238 49.336 8.78461 48.2897 4.86914 46.2998C10.2087 54.4659 19.6527 60 30.1172 60C35.8876 60 41.2623 58.2113 45.8353 55.3673C45.0049 49.6998 43.0147 43.7089 39.5221 39.0419Z" fill="#FF5134"/>
</svg>
