<svg width="61" height="60" viewBox="0 0 61 60" fill="none" xmlns="http://www.w3.org/2000/svg">
<path d="M30.1549 14.972C21.8683 14.972 15.127 21.7147 15.127 30.0013C15.127 38.2878 21.8683 45.0305 30.1549 45.0305C38.4401 45.0305 45.1827 38.2891 45.1827 30.0013C45.1827 21.7134 38.4401 14.972 30.1549 14.972Z" fill="#FF5134"/>
<path d="M30.1529 10.5545C28.5334 10.5545 27.2207 9.24181 27.2207 7.62356V2.93224C27.2207 1.31267 28.5334 0 30.1529 0C31.7725 0 33.0852 1.31267 33.0852 2.93224V7.62356C33.0852 9.24181 31.7712 10.5545 30.1529 10.5545Z" fill="#FF5134"/>
<path d="M30.1529 49.4442C28.5334 49.4442 27.2207 50.7569 27.2207 52.3765V57.0664C27.2207 58.6873 28.5334 60 30.1529 60C31.7725 60 33.0852 58.6873 33.0852 57.0664V52.3765C33.0852 50.7569 31.7712 49.4442 30.1529 49.4442Z" fill="#FF5134"/>
<path d="M43.9029 16.2502C42.7589 15.1049 42.7589 13.2488 43.9029 12.1036L47.2204 8.78605C48.3643 7.64212 50.2217 7.64212 51.367 8.78605C52.5123 9.93131 52.5123 11.7887 51.367 12.9326L48.0495 16.2502C46.9055 17.3954 45.0495 17.3954 43.9029 16.2502Z" fill="#FF5134"/>
<path d="M16.4046 43.7511C15.2593 42.6045 13.4033 42.6045 12.258 43.7511L8.94048 47.0673C7.79655 48.2112 7.79522 50.0699 8.94048 51.2139C10.0857 52.3578 11.9431 52.3578 13.0871 51.2139L16.4046 47.895C17.5499 46.7511 17.5499 44.8937 16.4046 43.7511Z" fill="#FF5134"/>
<path d="M49.5977 30C49.5977 28.3804 50.9103 27.0677 52.5299 27.0677H57.2212C58.8408 27.0677 60.1535 28.3804 60.1535 30C60.1535 31.6196 58.8408 32.9309 57.2212 32.9309H52.5299C50.9103 32.9309 49.5977 31.6196 49.5977 30Z" fill="#FF5134"/>
<path d="M10.7088 30C10.7088 28.3804 9.3961 27.0677 7.77653 27.0677H3.08654C1.46696 27.0677 0.154297 28.3804 0.154297 30C0.154297 31.6196 1.46696 32.9309 3.08654 32.9309H7.77786C9.3961 32.9309 10.7088 31.6196 10.7088 30Z" fill="#FF5134"/>
<path d="M43.9019 43.7511C45.0472 42.6072 46.9046 42.6072 48.0485 43.7511L51.366 47.0687C52.5113 48.2113 52.5113 50.07 51.366 51.2139C50.2208 52.3579 48.3647 52.3579 47.2195 51.2139L43.9019 47.8964C42.7567 46.7511 42.7567 44.8951 43.9019 43.7511Z" fill="#FF5134"/>
<path d="M16.4051 16.2502C17.5504 15.1049 17.5504 13.2489 16.4051 12.1036L13.0876 8.78741C11.9423 7.64215 10.0862 7.64215 8.94098 8.78741C7.79572 9.93134 7.79572 11.7887 8.94098 12.9327L12.2585 16.2502C13.4038 17.3968 15.2598 17.3968 16.4051 16.2502Z" fill="#FF5134"/>
</svg>
