<svg width="50" height="53" viewBox="0 0 50 53" fill="none" xmlns="http://www.w3.org/2000/svg">
<path d="M44.7128 0H18.4454C15.5215 0 13.1556 2.38235 13.1556 5.3265V20.2646L0.781126 32.5658C0.410353 32.9351 0.156879 33.4069 0.0528741 33.9215C-0.0511313 34.436 -0.000979793 34.9701 0.196964 35.4559C0.394907 35.9417 0.731719 36.3573 1.16465 36.65C1.59759 36.9428 2.10713 37.0994 2.62861 37.1V50.35C2.62861 51.0528 2.90588 51.7269 3.39943 52.2238C3.89298 52.7208 4.56237 53 5.26035 53H47.3683C48.0662 53 48.7356 52.7208 49.2292 52.2238C49.7227 51.7269 50 51.0528 50 50.35V5.32385C50 2.38235 47.6367 0 44.7128 0ZM23.4773 34.7442V47.7H7.8921V32.9448L15.7531 25.1299L23.4773 33.0879V34.7442ZM28.946 18.55H23.6826V13.25H28.946V18.55ZM39.473 39.75H34.2095V34.45H39.473V39.75ZM39.473 29.15H34.2095V23.85H39.473V29.15ZM39.473 18.55H34.2095V13.25H39.473V18.55Z" fill="#1E2843"/>
<path d="M13 34H18.2635V39.3011H13V34Z" fill="#1E2843"/>
</svg>
