<svg width="195" height="333" viewBox="0 0 195 333" fill="none" xmlns="http://www.w3.org/2000/svg">
<g clip-path="url(#clip0)">
<path d="M17.9602 99.2725C4.33189 143.849 58.6126 182.434 106.746 180.026C153.344 177.694 186.481 140.14 186.461 96.1899C186.44 52.2416 152.64 4.8664 106.673 12.4206C79.4835 16.8888 68.2975 29.9029 52.5373 55.2124C36.4093 81.1125 24.0033 79.5065 17.9602 99.2725Z" fill="#FF5134"/>
<path d="M11.1327 54.9632C11.7286 56.2969 12.42 57.583 13.2014 58.8104C13.9571 60.0835 14.811 61.2899 15.7545 62.4177L15.2388 62.6826L13.8278 63.3822C12.9628 62.3516 12.1778 61.2495 11.4807 60.0863L11.4731 60.0736L11.4651 60.0612C10.7207 58.8984 10.0646 57.6765 9.50283 56.4067L10.7558 55.291L11.1327 54.9632Z" fill="white" stroke="black" stroke-width="2"/>
<path d="M7.95787 57.8163C8.48977 58.9564 9.09363 60.0593 9.76573 61.1176C10.4022 62.2271 11.1125 63.2885 11.8912 64.2939L5.08043 67.7777C4.98763 67.7496 4.82767 67.6763 4.60953 67.5192C4.13153 67.1748 3.55589 66.5586 3.05447 65.7486C2.55102 64.9353 2.24532 64.1383 2.14016 63.54C2.08709 63.2381 2.09427 63.0384 2.11568 62.9324C2.11625 62.9296 2.11681 62.9269 2.11736 62.9244L2.15004 62.8958L7.95787 57.8163ZM2.12874 62.8837C2.12876 62.8838 2.12851 62.8844 2.12794 62.8856L2.12874 62.8837Z" fill="white" stroke="black" stroke-width="2"/>
<path d="M22.1961 45.3135C21.9567 47.0372 22.1482 49.1907 23.4979 51.4775C25.0219 54.0599 27.1677 55.229 28.996 55.7322L25.5425 57.4842L22.8482 58.7475L22.8247 58.7586L22.8017 58.7709L18.9294 60.839L17.6462 61.4641C16.6473 60.3144 15.7503 59.071 14.9667 57.7491L14.9591 57.7364L14.9512 57.7238C14.1193 56.4111 13.3972 55.026 12.7928 53.5839L13.9219 52.5923L13.9226 52.5918L22.1961 45.3135Z" fill="white" stroke="black" stroke-width="2"/>
<mask id="path-5-inside-1" fill="white">
<path fill-rule="evenodd" clip-rule="evenodd" d="M20.8266 53.1149C20.4064 52.9925 19.9574 53.0392 19.5686 53.2457C19.0519 53.6045 18.6614 54.1295 18.4566 54.741C18.2518 55.3525 18.2439 56.0171 18.4339 56.6338C18.4855 57.0647 18.6352 57.5629 18.7917 58.0836C18.9092 58.4747 19.0305 58.8785 19.1169 59.276C19.0498 59.0613 19.0153 58.9478 19.0153 58.9478L8.32812 65.2007C12.8141 89.4133 19.7014 121.724 37.3549 126.132C58.1223 131.283 132.536 75.8058 100 56.5513C90.8611 51.1164 76.5746 66.2355 63.9258 79.6215C55.3549 88.6919 47.5359 96.9666 42.5797 97.5118C33.9016 98.3864 24.8766 75.8969 20.9892 64.8707C21.0535 64.8584 21.1172 64.8422 21.18 64.8221C21.4246 64.744 21.6494 64.6098 21.838 64.4293C24.9781 61.7573 23.131 57.0746 21.838 53.9068C21.6078 53.5199 21.2469 53.2373 20.8266 53.1149Z"/>
</mask>
<path fill-rule="evenodd" clip-rule="evenodd" d="M20.8266 53.1149C20.4064 52.9925 19.9574 53.0392 19.5686 53.2457C19.0519 53.6045 18.6614 54.1295 18.4566 54.741C18.2518 55.3525 18.2439 56.0171 18.4339 56.6338C18.4855 57.0647 18.6352 57.5629 18.7917 58.0836C18.9092 58.4747 19.0305 58.8785 19.1169 59.276C19.0498 59.0613 19.0153 58.9478 19.0153 58.9478L8.32812 65.2007C12.8141 89.4133 19.7014 121.724 37.3549 126.132C58.1223 131.283 132.536 75.8058 100 56.5513C90.8611 51.1164 76.5746 66.2355 63.9258 79.6215C55.3549 88.6919 47.5359 96.9666 42.5797 97.5118C33.9016 98.3864 24.8766 75.8969 20.9892 64.8707C21.0535 64.8584 21.1172 64.8422 21.18 64.8221C21.4246 64.744 21.6494 64.6098 21.838 64.4293C24.9781 61.7573 23.131 57.0746 21.838 53.9068C21.6078 53.5199 21.2469 53.2373 20.8266 53.1149Z" fill="white"/>
<path d="M19.5686 53.2457L18.6303 51.4794L18.5255 51.5351L18.428 51.6029L19.5686 53.2457ZM20.8266 53.1149L20.2673 55.0351L20.2673 55.0351L20.8266 53.1149ZM18.4339 56.6338L20.4197 56.396L20.3983 56.2171L20.3452 56.0448L18.4339 56.6338ZM18.7917 58.0836L16.8763 58.6591L16.8763 58.6591L18.7917 58.0836ZM19.1169 59.276L17.2081 59.8729L21.0713 58.8511L19.1169 59.276ZM19.0153 58.9478L20.9287 58.3656L20.1914 55.9425L18.0053 57.2215L19.0153 58.9478ZM8.32812 65.2007L7.31813 63.4744L6.10569 64.1838L6.36159 65.565L8.32812 65.2007ZM37.3549 126.132L36.8705 128.072L36.8734 128.073L37.3549 126.132ZM100 56.5513L98.9777 58.2703L98.9815 58.2725L100 56.5513ZM63.9258 79.6215L65.3794 80.9952L65.3794 80.9952L63.9258 79.6215ZM42.5797 97.5118L42.7803 99.5017L42.7894 99.5008L42.7984 99.4998L42.5797 97.5118ZM20.9892 64.8707L20.6115 62.9067L18.3308 63.3453L19.103 65.5357L20.9892 64.8707ZM21.18 64.8221L21.7881 66.7274L21.7881 66.7274L21.18 64.8221ZM21.838 64.4293L20.5419 62.9061L20.4971 62.9441L20.4547 62.9848L21.838 64.4293ZM21.838 53.9068L23.6897 53.151L23.6332 53.0126L23.5568 52.8842L21.838 53.9068ZM20.5069 55.012C20.4386 55.0482 20.3505 55.0593 20.2673 55.0351L21.386 51.1947C20.4622 50.9256 19.4762 51.0301 18.6303 51.4794L20.5069 55.012ZM20.3531 55.3762C20.4248 55.1621 20.5559 54.995 20.7092 54.8886L18.428 51.6029C17.5479 52.2139 16.8981 53.0969 16.5602 54.1059L20.3531 55.3762ZM20.3452 56.0448C20.2782 55.8274 20.2812 55.5909 20.3531 55.3762L16.5602 54.1059C16.2225 55.1142 16.2095 56.2069 16.5226 57.2229L20.3452 56.0448ZM20.7071 57.5081C20.535 56.9355 20.4464 56.6189 20.4197 56.396L16.4481 56.8716C16.5246 57.5106 16.7354 58.1904 16.8763 58.6591L20.7071 57.5081ZM21.0713 58.8511C20.9654 58.3644 20.8204 57.8853 20.7071 57.5081L16.8763 58.6591C16.998 59.0641 17.0956 59.3927 17.1626 59.7009L21.0713 58.8511ZM19.0153 58.9478C17.1019 59.53 17.1019 59.53 17.1019 59.53C17.1019 59.53 17.1019 59.53 17.1019 59.53C17.1019 59.5301 17.1019 59.5301 17.1019 59.5301C17.1019 59.5302 17.1019 59.5302 17.102 59.5303C17.102 59.5304 17.1021 59.5306 17.1021 59.5307C17.1022 59.5311 17.1024 59.5316 17.1025 59.5322C17.1029 59.5334 17.1034 59.535 17.104 59.537C17.1053 59.5411 17.1071 59.547 17.1094 59.5546C17.114 59.5698 17.1208 59.5919 17.1297 59.6207C17.1475 59.6784 17.1737 59.7629 17.2081 59.8729L21.0258 58.6791C20.993 58.5744 20.9684 58.4948 20.9521 58.442C20.944 58.4157 20.9379 58.396 20.934 58.3832C20.9321 58.3768 20.9306 58.3721 20.9297 58.3691C20.9293 58.3677 20.929 58.3666 20.9288 58.3661C20.9287 58.3658 20.9286 58.3656 20.9286 58.3655C20.9286 58.3655 20.9286 58.3655 20.9286 58.3655C20.9286 58.3655 20.9286 58.3655 20.9286 58.3655C20.9286 58.3655 20.9286 58.3655 20.9286 58.3656C20.9286 58.3656 20.9286 58.3656 20.9286 58.3656C20.9286 58.3656 20.9287 58.3656 19.0153 58.9478ZM9.33812 66.9269L20.0253 60.674L18.0053 57.2215L7.31813 63.4744L9.33812 66.9269ZM37.8394 124.191C33.9797 123.228 30.5869 120.713 27.5689 116.913C24.5443 113.104 21.9756 108.101 19.77 102.374C15.3557 90.9138 12.5397 76.9539 10.2947 64.8363L6.36159 65.565C8.60249 77.6601 11.4731 91.9621 16.0373 103.812C18.321 109.741 21.0646 115.155 24.4365 119.401C27.8151 123.655 31.9034 126.832 36.8705 128.072L37.8394 124.191ZM98.9815 58.2725C102.708 60.4775 104.727 63.0845 105.591 65.8728C106.466 68.6947 106.239 71.9658 104.97 75.613C102.408 82.9707 95.8005 91.2767 87.3183 99.0162C78.8804 106.715 68.796 113.665 59.5728 118.358C54.9611 120.705 50.6112 122.464 46.8257 123.479C42.9936 124.507 39.9485 124.714 37.8364 124.191L36.8734 128.073C39.9532 128.837 43.7764 128.438 47.8617 127.342C51.9937 126.234 56.6103 124.354 61.3869 121.923C70.9405 117.062 81.32 109.904 90.0144 101.971C98.6646 94.0783 105.858 85.2268 108.747 76.9282C110.203 72.7472 110.614 68.5655 109.412 64.6882C108.199 60.7773 105.427 57.4387 101.019 54.8301L98.9815 58.2725ZM65.3794 80.9952C71.7393 74.2646 78.3519 67.275 84.4876 62.6222C87.5547 60.2964 90.3744 58.6563 92.8711 57.8935C95.3253 57.1436 97.3123 57.2798 98.9778 58.2703L101.022 54.8323C98.1183 53.1053 94.8924 53.0933 91.7023 54.0681C88.5547 55.0298 85.2987 56.9871 82.0707 59.4349C75.6162 64.3295 68.7611 71.5924 62.4721 78.2479L65.3794 80.9952ZM42.7984 99.4998C44.4832 99.3145 46.2076 98.5088 47.8736 97.4498C49.5683 96.3725 51.3702 94.9233 53.2328 93.2523C56.9529 89.9149 61.1122 85.511 65.3794 80.9952L62.4721 78.2479C58.1684 82.8024 54.1328 87.0712 50.5617 90.2749C48.7786 91.8745 47.1608 93.1631 45.7277 94.0741C44.2658 95.0034 43.1543 95.4365 42.3611 95.5238L42.7984 99.4998ZM19.103 65.5357C21.0573 71.079 24.3296 79.5845 28.2395 86.6251C30.1889 90.1355 32.3552 93.3898 34.6676 95.7353C36.9266 98.0267 39.6892 99.8132 42.7803 99.5017L42.3792 95.5219C41.1312 95.6476 39.5113 94.951 37.516 92.9271C35.574 90.9572 33.6139 88.0639 31.7364 84.6831C27.9924 77.9411 24.8085 69.6887 22.8754 64.2057L19.103 65.5357ZM20.5719 62.9168C20.5847 62.9127 20.5979 62.9093 20.6115 62.9067L21.3669 66.8347C21.5091 66.8074 21.6497 66.7716 21.7881 66.7274L20.5719 62.9168ZM20.4547 62.9848C20.4824 62.9583 20.5215 62.9329 20.5719 62.9168L21.7881 66.7274C22.3277 66.5552 22.8165 66.2613 23.2212 65.8738L20.4547 62.9848ZM19.9863 54.6626C20.6473 56.282 21.3215 58.0024 21.515 59.5952C21.7017 61.1318 21.4054 62.1713 20.5419 62.9061L23.1341 65.9525C25.4107 64.0153 25.7609 61.3775 25.4858 59.1128C25.2175 56.9042 24.3217 54.6994 23.6897 53.151L19.9863 54.6626ZM20.2673 55.0351C20.1862 55.0115 20.1397 54.964 20.1192 54.9294L23.5568 52.8842C23.0758 52.0759 22.3075 51.4632 21.386 51.1947L20.2673 55.0351Z" fill="black" mask="url(#path-5-inside-1)"/>
<path d="M23.1225 47.858L23.1226 47.858L23.1208 47.8453C23.039 47.2634 23.0233 46.6733 23.074 46.0875L23.0748 46.0787L23.0754 46.0698C23.173 44.6499 23.621 43.2835 24.3726 42.1035L24.3726 42.1035L24.3745 42.1004C24.5033 41.8965 24.6449 41.7021 24.7982 41.5185L24.8112 41.5029L24.8236 41.4868C25.3605 40.7877 25.9971 40.1817 26.7096 39.6898L26.718 39.684L26.7262 39.6781C26.942 39.5225 27.1706 39.3884 27.4089 39.2772L27.4089 39.2772L27.4146 39.2745L27.9951 38.999L28.006 38.9939L28.0167 38.9885C28.3742 38.8082 28.753 38.6815 29.1422 38.6115L29.2207 38.5974L29.2959 38.571C29.4618 38.5128 29.6329 38.4746 29.8061 38.4568L29.8316 38.4542L29.8569 38.4503C30.996 38.2739 32.1584 38.3569 33.265 38.6941L33.2752 38.6972L33.2854 38.7C33.8039 38.8461 34.3051 39.0552 34.7786 39.3236L34.7786 39.3237L34.7906 39.3303C34.9881 39.4387 35.1786 39.5611 35.3609 39.6967L35.3866 39.7158L35.4135 39.7333C36.1679 40.2228 36.8276 40.8613 37.3547 41.6157L37.3823 41.6553L37.4136 41.6919C37.524 41.8213 37.6241 41.9606 37.7127 42.1083L37.7185 42.118L37.7245 42.1275C38.0437 42.6333 38.3015 43.1796 38.4917 43.7538L38.4961 43.7671L38.5009 43.7802C38.8775 44.8193 39.0379 45.9317 38.9706 47.0426L38.9694 47.0631L38.969 47.0838C38.9505 48.0404 38.7523 48.9828 38.3865 49.8574L38.3648 49.9095L38.349 49.9637C38.2906 50.1643 38.2114 50.3569 38.1132 50.5382L38.1008 50.561L38.0897 50.5844C37.7364 51.3259 37.2655 51.9971 36.6985 52.5697L36.6927 52.5756L36.6871 52.5815L36.233 53.0555C35.9507 53.3154 35.649 53.5506 35.331 53.7588L35.3241 53.7633L35.3172 53.7679C34.6025 54.2529 33.8192 54.6135 32.9978 54.837L32.2057 55.0179C31.5514 55.1198 30.8861 55.1181 30.2321 55.013L30.1884 55.0059L30.1442 55.0028C29.4186 54.9512 28.7062 54.7675 28.0388 54.459L28.0227 54.4516L28.0064 54.4447C26.566 53.8399 25.3254 52.7984 24.4461 51.4484L24.3251 51.257L24.2846 51.1911C24.2104 51.066 24.1466 50.9339 24.0941 50.7962L24.0693 50.7311L24.0357 50.67C23.5597 49.8054 23.249 48.8502 23.1225 47.858Z" fill="white" stroke="black" stroke-width="2"/>
<path d="M16.5136 55.8361L16.3759 56.8266L15.4575 57.2221C15.5919 57.5342 15.6171 57.8889 15.5267 58.2207C15.4384 58.5447 15.2483 58.8175 14.9988 58.9995C14.7141 59.1769 14.3887 59.2569 14.0653 59.2336C13.7347 59.2098 13.4139 59.0785 13.149 58.8506L11.1357 57.1186L11.5067 59.7484C11.5299 59.9131 11.5197 60.081 11.4771 60.2406C11.4345 60.4001 11.3611 60.5458 11.2637 60.669L11.2637 60.6689L11.2559 60.679C10.8484 61.2084 10.5406 61.2337 10.3099 61.1927C9.96388 61.1313 9.48819 60.8471 8.95169 60.2747L7.96189 59.2185L7.32427 60.518C7.17057 60.8312 6.84368 61.0976 6.53603 61.1819C6.39541 61.2205 6.29531 61.2115 6.23075 61.1902C6.17609 61.1722 6.09015 61.1279 5.99316 60.9824L5.98389 60.9685L5.97416 60.9549C5.03828 59.6474 4.178 58.2824 3.398 56.8673L3.39803 56.8672L3.39414 56.8603C3.206 56.5253 3.26414 56.1414 3.57361 55.7891C3.92568 55.3884 4.30361 55.3541 4.42467 55.3979L6.04631 55.9852L5.75036 54.2861C5.73643 54.2061 5.74763 54.0446 5.88698 53.7964C6.02372 53.5529 6.24775 53.295 6.52258 53.0725C6.79904 52.8486 7.07965 52.6987 7.2965 52.6312C7.38557 52.6034 7.44156 52.5955 7.47126 52.5935L8.81898 53.4142L8.9295 51.7702C8.95358 51.412 9.28606 50.8743 9.89595 50.4066C10.1772 50.1909 10.4576 50.039 10.678 49.9598C10.7816 49.9226 10.8458 49.9102 10.8774 49.9058L11.1512 50.0165L11.5061 49.893C11.762 49.8039 11.9187 49.6353 11.9586 49.5924L11.9608 49.5901C12.0232 49.5231 12.0739 49.455 12.1059 49.4105C12.1449 49.3563 12.1985 49.2767 12.2434 49.2099C12.2636 49.1798 12.2821 49.1524 12.2967 49.131C12.4256 48.9423 12.5465 48.7865 12.6728 48.6781C12.791 48.5768 12.8563 48.5661 12.8888 48.5655C12.9204 48.5649 13.0893 48.5704 13.4211 48.8415C14.3053 49.5639 15.4603 50.6124 16.3325 51.7838C17.221 52.9773 17.6769 54.111 17.5298 55.0736C17.4735 55.3244 17.3329 55.5351 17.1467 55.6719C16.9572 55.8111 16.7317 55.8664 16.5136 55.8361Z" fill="white" stroke="black" stroke-width="2"/>
<path d="M119.219 44.6491C118.948 44.8088 118.532 45.0291 117.955 45.2693C116.733 45.7784 114.783 46.3802 111.955 46.6802C106.531 47.2557 97.8563 46.723 84.8818 42.2687C91.0178 37.1707 95.764 30.4718 98.6334 22.8418L105.072 7.02716C105.392 7.09131 105.824 7.2086 106.337 7.42325C107.558 7.93385 109.278 9.01091 111.072 11.3039C114.642 15.8665 118.533 25.2862 119.219 44.6491Z" fill="white" stroke="black" stroke-width="2"/>
<path d="M120.113 281.444C120.211 282.096 120.298 282.659 120.372 283.129C116.686 281.873 112.081 281.23 107.21 280.967C101.554 280.662 95.4495 280.866 89.8352 281.27C84.2179 281.675 79.0737 282.282 75.3347 282.787C73.4647 283.04 71.9449 283.268 70.8915 283.432C70.69 283.464 70.5056 283.493 70.339 283.52C65.851 217.87 68.0963 177.595 71.4625 153.738C73.1547 141.745 75.1292 133.908 76.6702 129.088C77.4406 126.678 78.1023 125.023 78.5657 123.98C78.6967 123.685 78.8119 123.439 78.9091 123.239L122.899 137.519C115.243 173.48 114.658 210.161 115.996 237.909C116.67 251.9 117.833 263.631 118.828 271.865C119.326 275.983 119.782 279.227 120.113 281.444ZM79.2711 122.544C79.2715 122.543 79.2716 122.543 79.2714 122.544L79.2711 122.544Z" fill="url(#paint0_linear)" stroke="url(#paint1_linear)" stroke-width="2"/>
<path d="M95.9758 88.6498L95.9349 88.7593L95.9203 88.8753L93.4222 108.746C93.4213 108.746 93.4203 108.746 93.4194 108.746C92.7229 108.555 91.7103 108.252 90.4626 107.807C87.966 106.917 84.5352 105.459 80.8143 103.196C73.4879 98.7397 65.0574 91.1744 60.3838 78.6632C70.086 68.5348 80.4578 59.1314 91.4224 50.5222C95.0534 55.8277 97.4027 61.9812 98.259 68.4572C99.1614 75.2821 98.375 82.234 95.9758 88.6498Z" fill="white" stroke="black" stroke-width="2"/>
<path d="M146.562 139.711C149.732 176.357 161.333 209.935 172.176 234.409C177.652 246.769 182.939 256.816 186.859 263.777C188.819 267.257 190.438 269.966 191.567 271.807C191.845 272.259 192.092 272.658 192.308 273.004C188.466 273.005 183.957 273.845 179.311 275.116C173.83 276.616 168.069 278.742 162.834 280.902C157.597 283.064 152.87 285.269 149.453 286.932C147.744 287.764 146.361 288.461 145.405 288.95C145.228 289.041 145.065 289.125 144.918 289.201C121.603 228.096 111.985 192.047 108.196 171.285C106.292 160.847 105.864 154.291 105.905 150.371C105.925 148.412 106.063 147.117 106.189 146.328C106.217 146.149 106.245 145.996 106.271 145.868L146.562 139.711Z" fill="url(#paint2_linear)" stroke="url(#paint3_linear)" stroke-width="2"/>
<path d="M148.323 152.842C148.303 153.056 148.285 153.245 148.269 153.408C117.645 159.004 98.0594 156.312 86.1622 152.265C80.1648 150.224 76.1096 147.836 73.5686 145.978C72.2975 145.049 71.4037 144.251 70.8342 143.694C70.682 143.545 70.5529 143.413 70.446 143.3C75.2914 133.004 77.3008 122.13 78.2238 111.548C78.7934 105.019 78.9521 98.5092 79.1029 92.3233C79.1996 88.3565 79.2931 84.5229 79.4896 80.9029C79.9987 71.5232 81.1966 63.4454 84.7685 57.3471C88.2917 51.3319 94.2021 47.1208 104.471 45.6412C111.518 44.6361 117.431 45.5597 122.408 47.9011C127.39 50.2453 131.497 54.041 134.876 58.8753C141.653 68.5705 145.428 82.3405 147.42 96.5042C149.408 110.643 149.603 125.055 149.299 135.944C149.147 141.385 148.87 145.941 148.632 149.134C148.513 150.73 148.403 151.986 148.323 152.842Z" fill="white" stroke="black" stroke-width="2"/>
<path fill-rule="evenodd" clip-rule="evenodd" d="M96.2738 75.8928C97.415 75.947 98.5246 76.327 99.5089 77.0005C100.493 77.6741 101.323 78.6215 101.93 79.7629C102.953 81.7239 104.385 80.7128 104.265 83.0373L104.129 85.6775C104.083 86.2964 103.834 86.8722 103.435 87.2794C103.037 87.6865 102.521 87.892 102.001 87.851L101.718 87.8352C101.545 87.8294 101.381 87.7421 101.263 87.5923C101.144 87.4425 101.081 87.2424 101.088 87.0357L101.315 82.6222C101.307 81.8818 101.121 81.1626 100.776 80.551C100.286 79.6266 99.614 78.8593 98.8172 78.3138C98.0203 77.7684 97.1219 77.4607 96.198 77.417C94.8958 77.3542 93.6056 77.7951 92.5208 78.6736C91.6557 79.3645 91.4696 77.7308 91.8045 77.3927C93.1223 76.3252 94.6929 75.7981 96.2738 75.8928V75.8928Z" fill="#FF5134"/>
<path fill-rule="evenodd" clip-rule="evenodd" d="M92.9098 79.9178C92.0501 80.7905 91.5079 82.0108 91.3956 83.3258C91.3679 83.5209 91.3489 83.7175 91.3387 83.9147C91.3306 84.0954 91.3352 84.2764 91.3524 84.4559C91.425 86.6096 93.4324 91.151 94.7963 93.5344C95.2342 94.3044 95.682 94.5123 96.3378 93.6104C97.9454 91.3957 100.394 87.1094 100.687 84.9793C100.723 84.8026 100.747 84.6229 100.757 84.442C100.767 84.2438 100.769 84.0452 100.761 83.847C100.783 82.5264 100.366 81.2529 99.5974 80.2922C98.7374 79.2618 97.5715 78.651 96.3321 78.5816C95.0927 78.5122 93.8707 78.9893 92.9098 79.9178ZM96.2356 80.5483C96.7549 80.578 97.2533 80.786 97.668 81.146C98.0827 81.506 98.3952 82.002 98.5662 82.5716C98.7373 83.1411 98.7592 83.7589 98.6293 84.3471C98.4993 84.9353 98.2233 85.4678 97.836 85.8774C97.5791 86.156 97.2766 86.3711 96.947 86.5093C96.6174 86.6475 96.2677 86.7059 95.9197 86.6809C95.5736 86.668 95.2344 86.5713 94.9238 86.3971C94.6132 86.223 94.3378 85.975 94.1153 85.6691C93.8833 85.3719 93.7048 85.0233 93.5903 84.6436C93.4759 84.2639 93.4276 83.8605 93.4484 83.457C93.4692 83.0535 93.5586 82.6579 93.7114 82.2931C93.8643 81.9284 94.0775 81.6017 94.3387 81.3321C94.5935 81.058 94.8934 80.847 95.2196 80.7122C95.5459 80.5774 95.8917 80.5216 96.2356 80.5483Z" fill="#FF5134"/>
<path d="M112.442 32.5007C111.711 36.3214 111.843 40.2719 112.831 44.0381C110.706 45.5875 108.067 48.4053 105.532 51.4172C103.185 54.2059 100.861 57.2413 99.0151 59.7796C98.789 59.002 98.6443 58.1182 98.5697 57.1624C98.4413 55.5184 98.5259 53.7448 98.7019 52.0949C98.8775 50.4488 99.1414 48.9494 99.3618 47.8605C99.4719 47.3168 99.5707 46.8773 99.6417 46.5752C99.6658 46.4724 99.6867 46.3857 99.7037 46.3162C101.005 44.6526 101.935 42.7102 102.427 40.6295C102.863 38.7866 102.947 36.8757 102.676 35.0051L112.442 32.5007Z" fill="white" stroke="black" stroke-width="2"/>
<path d="M129.95 150.872C130.193 150.982 130.411 151.079 130.603 151.165L119.478 177.982C119.277 177.819 119.049 177.635 118.797 177.433C117.735 176.582 116.243 175.404 114.522 174.102C111.093 171.507 106.714 168.383 103.019 166.362C99.1802 164.263 94.1818 161.799 90.1536 159.865C88.1372 158.897 86.3598 158.06 85.0864 157.464C84.4497 157.167 83.9388 156.929 83.5869 156.766C83.5385 156.744 83.493 156.723 83.4507 156.703L83.1063 155.626C83.2435 155.539 83.4015 155.44 83.579 155.329C84.295 154.881 85.3279 154.246 86.5924 153.496C89.1228 151.996 92.5733 150.044 96.2626 148.23C99.959 146.411 103.861 144.748 107.302 143.807C109.022 143.336 110.596 143.055 111.951 143.015C113.317 142.974 114.383 143.18 115.151 143.605C118.653 145.544 122.75 147.537 125.963 149.042C127.571 149.795 128.961 150.428 129.95 150.872Z" fill="white" stroke="black" stroke-width="2"/>
<path d="M131.261 150.63L119.547 174.261C119.33 174.085 119.08 173.883 118.799 173.658C117.737 172.806 116.245 171.629 114.524 170.327C111.094 167.732 106.716 164.608 103.02 162.587C99.1342 160.461 93.9134 158.412 89.6983 156.903C87.5838 156.145 85.7094 155.519 84.3633 155.082C83.9806 154.958 83.6405 154.849 83.3496 154.757L95.0628 131.127C95.4169 131.257 95.8785 131.427 96.4281 131.634C97.7817 132.141 99.6681 132.863 101.799 133.721C106.07 135.44 111.283 137.687 115.152 139.829C118.575 141.725 122.768 144.547 126.123 146.911C127.797 148.09 129.254 149.149 130.293 149.914C130.676 150.196 131.002 150.437 131.261 150.63Z" fill="white" stroke="black" stroke-width="2"/>
<mask id="path-19-inside-2" fill="white">
<path fill-rule="evenodd" clip-rule="evenodd" d="M121.154 143.732C138.031 140.143 183.676 127.016 186.474 111.23C190.723 87.1822 132.88 31.347 124.806 67.6798C122.341 78.111 133.959 85.6711 143.827 92.0923C145.476 93.1658 147.077 94.2075 148.555 95.2255C153.964 98.9442 157.764 102.332 156.287 105.803C154.044 111.092 144.702 117.482 136.443 122.33C129.741 126.242 120.394 132.961 118.77 134.135C116.971 133.891 115.306 133.955 114.564 134.23C109.788 135.965 102.663 139.739 101.37 145.055C100.816 147.81 102.452 147.81 104.009 145.689C106.648 141.585 108.6 141.722 105.988 146.185C105.223 147.507 104.009 151.887 104.827 152.41C106.018 153.226 107.591 150.341 108.914 147.913C109.466 146.899 109.975 145.965 110.395 145.414C111.388 144.856 110.874 146.717 110.335 148.664C109.915 150.182 109.481 151.753 109.735 152.272C110.638 154.121 112.705 150.686 114.191 148.217C114.92 147.007 115.508 146.029 115.752 146.02C116.602 146.02 116.011 147.137 115.346 148.396C114.483 150.03 113.493 151.902 115.356 151.887C116.895 151.887 118.744 148.336 120.264 145.416C120.577 144.816 120.875 144.243 121.154 143.732Z"/>
</mask>
<path fill-rule="evenodd" clip-rule="evenodd" d="M121.154 143.732C138.031 140.143 183.676 127.016 186.474 111.23C190.723 87.1822 132.88 31.347 124.806 67.6798C122.341 78.111 133.959 85.6711 143.827 92.0923C145.476 93.1658 147.077 94.2075 148.555 95.2255C153.964 98.9442 157.764 102.332 156.287 105.803C154.044 111.092 144.702 117.482 136.443 122.33C129.741 126.242 120.394 132.961 118.77 134.135C116.971 133.891 115.306 133.955 114.564 134.23C109.788 135.965 102.663 139.739 101.37 145.055C100.816 147.81 102.452 147.81 104.009 145.689C106.648 141.585 108.6 141.722 105.988 146.185C105.223 147.507 104.009 151.887 104.827 152.41C106.018 153.226 107.591 150.341 108.914 147.913C109.466 146.899 109.975 145.965 110.395 145.414C111.388 144.856 110.874 146.717 110.335 148.664C109.915 150.182 109.481 151.753 109.735 152.272C110.638 154.121 112.705 150.686 114.191 148.217C114.92 147.007 115.508 146.029 115.752 146.02C116.602 146.02 116.011 147.137 115.346 148.396C114.483 150.03 113.493 151.902 115.356 151.887C116.895 151.887 118.744 148.336 120.264 145.416C120.577 144.816 120.875 144.243 121.154 143.732Z" fill="white"/>
<path d="M186.474 111.23L188.444 111.579L188.444 111.578L186.474 111.23ZM121.154 143.732L120.738 141.776L119.84 141.967L119.4 142.773L121.154 143.732ZM124.806 67.6798L126.752 68.1396L126.755 68.1267L126.758 68.1137L124.806 67.6798ZM143.827 92.0923L142.736 93.7686L142.736 93.7686L143.827 92.0923ZM148.555 95.2255L147.42 96.8726L147.422 96.8736L148.555 95.2255ZM156.287 105.803L154.446 105.02L154.445 105.022L156.287 105.803ZM136.443 122.33L137.451 124.058L137.455 124.055L136.443 122.33ZM118.77 134.135L118.501 136.117L119.294 136.225L119.942 135.756L118.77 134.135ZM114.564 134.23L115.247 136.11L115.259 136.105L114.564 134.23ZM101.37 145.055L99.4267 144.583L99.4172 144.622L99.4093 144.661L101.37 145.055ZM104.009 145.689L105.621 146.872L105.658 146.823L105.691 146.771L104.009 145.689ZM105.988 146.185L104.262 145.174L104.257 145.183L105.988 146.185ZM104.827 152.41L105.957 150.76L105.931 150.742L105.905 150.725L104.827 152.41ZM108.914 147.913L107.158 146.956L107.158 146.956L108.914 147.913ZM110.395 145.414L109.416 143.669L109.054 143.872L108.803 144.203L110.395 145.414ZM110.335 148.664L112.263 149.197L112.263 149.197L110.335 148.664ZM109.735 152.272L111.532 151.394L111.531 151.392L109.735 152.272ZM114.191 148.217L112.477 147.186L112.477 147.186L114.191 148.217ZM115.752 146.02V144.02H115.714L115.677 144.021L115.752 146.02ZM115.346 148.396L113.577 147.462L113.577 147.462L115.346 148.396ZM115.356 151.887V149.887H115.347L115.339 149.887L115.356 151.887ZM120.264 145.416L118.49 144.493L118.49 144.493L120.264 145.416ZM184.505 110.88C183.951 114.009 181.151 117.389 176.303 120.833C171.543 124.214 165.205 127.379 158.333 130.205C144.602 135.852 129.093 139.999 120.738 141.776L121.571 145.689C130.093 143.876 145.844 139.666 159.854 133.905C166.853 131.027 173.506 127.726 178.619 124.094C183.644 120.524 187.599 116.343 188.444 111.579L184.505 110.88ZM126.758 68.1137C127.704 63.8563 129.319 61.2189 131.208 59.6864C133.073 58.1738 135.436 57.5486 138.292 57.769C144.15 58.2211 151.604 62.2143 158.983 68.3499C166.292 74.4283 173.23 82.3631 178.063 90.2186C182.962 98.1824 185.432 105.632 184.505 110.882L188.444 111.578C189.641 104.803 186.474 96.2558 181.47 88.1226C176.4 79.8811 169.17 71.6191 161.54 65.2744C153.979 58.9869 145.724 54.3307 138.599 53.7808C134.963 53.5002 131.516 54.2858 128.688 56.5802C125.885 58.8546 123.926 62.4201 122.853 67.2459L126.758 68.1137ZM144.917 90.416C139.933 87.1726 134.775 83.8035 131.136 80.0061C127.523 76.236 125.744 72.4055 126.752 68.1396L122.859 67.22C121.403 73.3854 124.201 78.5505 128.248 82.7736C132.268 86.9693 137.852 90.5908 142.736 93.7686L144.917 90.416ZM149.689 93.5784C148.186 92.5428 146.562 91.4864 144.917 90.416L142.736 93.7686C144.39 94.8453 145.968 95.8723 147.42 96.8726L149.689 93.5784ZM158.127 106.587C159.29 103.855 158.203 101.34 156.546 99.3338C154.909 97.3521 152.397 95.44 149.688 93.5774L147.422 96.8736C150.122 98.7297 152.215 100.371 153.461 101.881C154.687 103.366 154.761 104.28 154.446 105.02L158.127 106.587ZM137.455 124.055C141.621 121.61 146.107 118.749 149.856 115.805C153.522 112.926 156.79 109.738 158.128 106.584L154.445 105.022C153.54 107.157 151.016 109.809 147.386 112.659C143.838 115.445 139.525 118.203 135.43 120.606L137.455 124.055ZM119.942 135.756C121.577 134.574 130.847 127.912 137.451 124.058L135.435 120.603C128.635 124.572 119.211 131.348 117.598 132.515L119.942 135.756ZM119.04 132.153C118.041 132.018 117.067 131.966 116.217 131.989C115.42 132.01 114.553 132.101 113.869 132.355L115.259 136.105C115.253 136.107 115.275 136.099 115.332 136.086C115.387 136.073 115.463 136.059 115.562 136.045C115.76 136.017 116.016 135.995 116.325 135.987C116.942 135.97 117.7 136.008 118.501 136.117L119.04 132.153ZM113.881 132.35C111.379 133.259 108.226 134.713 105.494 136.676C102.808 138.606 100.241 141.236 99.4267 144.583L103.313 145.528C103.792 143.559 105.434 141.644 107.828 139.924C110.175 138.237 112.972 136.936 115.247 136.11L113.881 132.35ZM99.4093 144.661C99.2436 145.485 99.1808 146.363 99.4045 147.157C99.6553 148.047 100.353 148.993 101.605 149.179C102.617 149.329 103.478 148.883 104.011 148.509C104.6 148.095 105.143 147.524 105.621 146.872L102.397 144.506C102.096 144.915 101.85 145.139 101.713 145.235C101.646 145.282 101.641 145.273 101.7 145.253C101.757 145.234 101.934 145.184 102.191 145.222C102.475 145.264 102.757 145.401 102.973 145.619C103.171 145.819 103.237 146.01 103.255 146.073C103.272 146.134 103.258 146.122 103.26 146.001C103.262 145.886 103.279 145.705 103.331 145.45L99.4093 144.661ZM105.691 146.771C106.296 145.83 106.818 145.203 107.186 144.848C107.275 144.762 107.348 144.7 107.402 144.657C107.458 144.612 107.485 144.597 107.483 144.598C107.481 144.599 107.467 144.607 107.441 144.619C107.416 144.63 107.372 144.648 107.312 144.665C107.203 144.697 106.965 144.75 106.649 144.699C106.3 144.643 105.934 144.469 105.649 144.16C105.385 143.873 105.287 143.576 105.251 143.407C105.188 143.117 105.256 142.985 105.211 143.166C105.136 143.469 104.878 144.122 104.262 145.174L107.714 147.195C108.404 146.017 108.882 144.979 109.093 144.129C109.191 143.734 109.29 143.16 109.16 142.562C109.091 142.239 108.935 141.822 108.591 141.449C108.226 141.053 107.758 140.826 107.286 140.75C106.467 140.618 105.797 140.953 105.484 141.133C105.097 141.356 104.736 141.654 104.411 141.967C103.753 142.601 103.041 143.496 102.327 144.607L105.691 146.771ZM104.257 145.183C103.725 146.102 103.176 147.756 102.862 149.16C102.701 149.881 102.571 150.665 102.556 151.36C102.549 151.701 102.566 152.12 102.672 152.537C102.766 152.909 103.018 153.627 103.749 154.095L105.905 150.725C106.431 151.062 106.542 151.529 106.549 151.556C106.568 151.628 106.552 151.609 106.555 151.445C106.562 151.13 106.63 150.639 106.765 150.034C107.045 148.787 107.485 147.59 107.719 147.187L104.257 145.183ZM103.697 154.06C104.18 154.391 104.752 154.571 105.359 154.55C105.935 154.53 106.419 154.335 106.782 154.126C107.466 153.731 108.01 153.115 108.408 152.595C109.231 151.522 110.034 150.038 110.67 148.87L107.158 146.956C106.471 148.216 105.826 149.389 105.234 150.161C104.925 150.564 104.769 150.668 104.782 150.661C104.81 150.645 104.965 150.561 105.221 150.552C105.509 150.542 105.771 150.633 105.957 150.76L103.697 154.06ZM110.67 148.87C111.258 147.791 111.682 147.025 111.986 146.624L108.803 144.203C108.268 144.906 107.675 146.007 107.158 146.956L110.67 148.87ZM111.373 147.158C111.372 147.158 111.103 147.32 110.666 147.313C110.418 147.309 110.122 147.249 109.831 147.087C109.541 146.925 109.339 146.709 109.208 146.51C108.978 146.16 108.962 145.856 108.96 145.837C108.956 145.779 108.962 145.782 108.952 145.876C108.902 146.319 108.697 147.085 108.407 148.131L112.263 149.197C112.512 148.296 112.833 147.158 112.927 146.323C112.952 146.097 112.971 145.82 112.949 145.531C112.929 145.28 112.865 144.792 112.552 144.315C112.156 143.711 111.49 143.326 110.733 143.314C110.136 143.304 109.666 143.529 109.416 143.669L111.373 147.158ZM108.407 148.131C108.203 148.869 107.967 149.718 107.821 150.451C107.748 150.818 107.683 151.221 107.665 151.609C107.65 151.924 107.643 152.548 107.939 153.153L111.531 151.392C111.63 151.594 111.651 151.749 111.656 151.789C111.662 151.837 111.658 151.846 111.66 151.798C111.665 151.697 111.687 151.515 111.743 151.235C111.856 150.674 112.047 149.978 112.263 149.197L108.407 148.131ZM107.938 153.15C108.159 153.603 108.537 154.148 109.18 154.493C109.875 154.865 110.593 154.853 111.165 154.685C112.113 154.408 112.831 153.662 113.253 153.177C114.209 152.079 115.195 150.428 115.905 149.249L112.477 147.186C111.702 148.475 110.911 149.776 110.236 150.55C109.843 151.002 109.782 150.922 110.042 150.846C110.27 150.779 110.666 150.751 111.069 150.967C111.245 151.061 111.364 151.173 111.434 151.255C111.503 151.335 111.53 151.391 111.532 151.394L107.938 153.15ZM115.905 149.249C116.28 148.625 116.578 148.132 116.81 147.789C116.865 147.708 116.909 147.645 116.944 147.598C116.981 147.55 116.996 147.532 116.994 147.535C116.992 147.537 116.979 147.551 116.956 147.573C116.934 147.594 116.891 147.633 116.829 147.678C116.77 147.722 116.664 147.793 116.517 147.859C116.371 147.924 116.133 148.007 115.826 148.018L115.677 144.021C115.044 144.045 114.609 144.346 114.46 144.455C114.265 144.598 114.117 144.752 114.021 144.858C113.827 145.074 113.646 145.327 113.497 145.547C113.192 145.998 112.831 146.599 112.477 147.186L115.905 149.249ZM115.752 148.02C115.657 148.02 115.397 148.007 115.088 147.847C114.737 147.666 114.459 147.365 114.305 147.008C114.169 146.694 114.17 146.434 114.175 146.331C114.181 146.221 114.2 146.165 114.194 146.187C114.179 146.238 114.129 146.373 114.007 146.626C113.891 146.868 113.748 147.139 113.577 147.462L117.114 149.331C117.402 148.786 117.844 147.971 118.04 147.284C118.121 147.001 118.325 146.227 117.976 145.42C117.768 144.938 117.402 144.54 116.923 144.293C116.486 144.067 116.059 144.02 115.752 144.02V148.02ZM113.577 147.462C113.367 147.86 113.115 148.335 112.902 148.802C112.697 149.252 112.468 149.818 112.361 150.401C112.264 150.932 112.186 151.934 112.872 152.81C113.588 153.725 114.645 153.893 115.372 153.887L115.339 149.887C115.135 149.889 115.618 149.828 116.022 150.345C116.397 150.824 116.271 151.258 116.296 151.119C116.312 151.031 116.376 150.824 116.54 150.464C116.697 150.121 116.893 149.75 117.114 149.331L113.577 147.462ZM115.356 153.887C116.494 153.887 117.371 153.254 117.908 152.762C118.491 152.229 119.016 151.545 119.475 150.865C120.396 149.499 121.293 147.772 122.038 146.34L118.49 144.493C117.715 145.981 116.927 147.488 116.159 148.628C115.773 149.2 115.453 149.587 115.208 149.811C114.918 150.076 114.986 149.887 115.356 149.887V153.887ZM122.038 146.34C122.353 145.735 122.642 145.181 122.909 144.692L119.4 142.773C119.109 143.304 118.8 143.897 118.49 144.493L122.038 146.34Z" fill="black" mask="url(#path-19-inside-2)"/>
<path d="M165.27 69.9017C165.379 70.0195 165.476 70.1252 165.559 70.2177C164.213 73.0283 161.86 75.9217 158.991 78.7211C155.94 81.6978 152.362 84.513 148.934 86.9488C145.51 89.3827 142.252 91.4263 139.849 92.8618C138.649 93.5791 137.663 94.1438 136.979 94.5285C136.762 94.6503 136.576 94.754 136.422 94.8388C124.061 87.0006 121.579 75.6784 122.214 66.1623C122.536 61.3278 123.666 56.9764 124.72 53.8282C125.247 52.2562 125.752 50.9896 126.124 50.1191C126.242 49.844 126.346 49.6087 126.434 49.4159C138.215 50.8152 148.037 56.0367 154.966 60.9805C158.495 63.4989 161.261 65.9368 163.139 67.742C164.078 68.6444 164.794 69.3874 165.27 69.9017Z" fill="white" stroke="black" stroke-width="2"/>
<mask id="path-22-inside-3" fill="white">
<path fill-rule="evenodd" clip-rule="evenodd" d="M117.232 23.5789C118.446 14.296 114.251 6.05982 107.891 5.15081C101.558 4.26935 95.4887 11.0731 94.2485 20.356C94.025 22.0292 93.978 23.6693 94.0885 25.2391C93.4981 26.3918 92.9445 27.5653 92.4286 28.7576C92.3885 28.8768 92.3734 29.0037 92.3843 29.1296C92.3953 29.2554 92.4321 29.3773 92.4921 29.4871C92.5522 29.5968 92.6342 29.6917 92.7325 29.7655C92.8308 29.8393 92.9431 29.8901 93.0619 29.9145C93.7254 30.0806 94.3946 30.2179 95.0678 30.3264C96.5886 34.9388 99.6706 38.2445 103.563 38.7841C109.923 39.6656 116.019 32.8618 117.232 23.5789Z"/>
</mask>
<path fill-rule="evenodd" clip-rule="evenodd" d="M117.232 23.5789C118.446 14.296 114.251 6.05982 107.891 5.15081C101.558 4.26935 95.4887 11.0731 94.2485 20.356C94.025 22.0292 93.978 23.6693 94.0885 25.2391C93.4981 26.3918 92.9445 27.5653 92.4286 28.7576C92.3885 28.8768 92.3734 29.0037 92.3843 29.1296C92.3953 29.2554 92.4321 29.3773 92.4921 29.4871C92.5522 29.5968 92.6342 29.6917 92.7325 29.7655C92.8308 29.8393 92.9431 29.8901 93.0619 29.9145C93.7254 30.0806 94.3946 30.2179 95.0678 30.3264C96.5886 34.9388 99.6706 38.2445 103.563 38.7841C109.923 39.6656 116.019 32.8618 117.232 23.5789Z" fill="white"/>
<path d="M107.891 5.15081L108.174 3.17092L108.167 3.16991L107.891 5.15081ZM117.232 23.5789L119.216 23.8382L119.216 23.8382L117.232 23.5789ZM94.2485 20.356L92.2661 20.0912L92.2661 20.0912L94.2485 20.356ZM94.0885 25.2391L95.8686 26.1508L96.1227 25.6547L96.0836 25.0986L94.0885 25.2391ZM92.4286 28.7576L90.593 27.9634L90.5597 28.0403L90.533 28.1198L92.4286 28.7576ZM92.4921 29.4871L94.2465 28.5267L94.2465 28.5267L92.4921 29.4871ZM92.7325 29.7655L91.5322 31.3653L91.5322 31.3653L92.7325 29.7655ZM93.0619 29.9145L93.5474 27.9743L93.5065 27.9641L93.4652 27.9556L93.0619 29.9145ZM95.0678 30.3264L96.9672 29.7001L96.5865 28.5453L95.386 28.3519L95.0678 30.3264ZM103.563 38.7841L103.838 36.8031L103.838 36.8031L103.563 38.7841ZM107.608 7.13069C109.955 7.46612 112.124 9.18568 113.618 12.13C115.107 15.0623 115.81 19.0289 115.249 23.3196L119.216 23.8382C119.868 18.846 119.081 14.053 117.185 10.3193C115.296 6.59754 112.187 3.74452 108.174 3.17093L107.608 7.13069ZM96.2309 20.6209C96.8055 16.3202 98.4896 12.6881 100.65 10.2761C102.815 7.85804 105.299 6.80929 107.615 7.13172L108.167 3.16991C104.15 2.61087 100.432 4.52328 97.6702 7.60746C94.9024 10.6978 92.9318 15.1089 92.2661 20.0912L96.2309 20.6209ZM96.0836 25.0986C95.9827 23.6653 96.0251 22.161 96.2309 20.6209L92.2661 20.0912C92.0248 21.8975 91.9734 23.6734 92.0935 25.3795L96.0836 25.0986ZM92.3084 24.3274C91.6983 25.5187 91.1261 26.7314 90.593 27.9634L94.2641 29.5518C94.7629 28.3992 95.298 27.2649 95.8686 26.1508L92.3084 24.3274ZM90.533 28.1198C90.4047 28.501 90.3571 28.9042 90.3919 29.3031L94.3768 28.956C94.3896 29.1032 94.3722 29.2527 94.3241 29.3954L90.533 28.1198ZM90.3919 29.3031C90.4266 29.7021 90.5434 30.0923 90.7378 30.4474L94.2465 28.5267C94.3207 28.6624 94.364 28.8087 94.3768 28.956L90.3919 29.3031ZM90.7378 30.4474C90.9323 30.8028 91.2016 31.1173 91.5322 31.3653L93.9327 28.1657C94.0667 28.2662 94.172 28.3908 94.2465 28.5267L90.7378 30.4474ZM91.5322 31.3653C91.8631 31.6136 92.2469 31.7887 92.6586 31.8735L93.4652 27.9556C93.6393 27.9915 93.7984 28.0649 93.9327 28.1657L91.5322 31.3653ZM92.5764 31.8547C93.2951 32.0346 94.0201 32.1834 94.7496 32.3009L95.386 28.3519C94.769 28.2525 94.1556 28.1266 93.5474 27.9743L92.5764 31.8547ZM103.838 36.8031C100.982 36.4072 98.3533 33.9041 96.9672 29.7001L93.1684 30.9527C94.8238 35.9735 98.3589 40.0819 103.289 40.7652L103.838 36.8031ZM115.249 23.3196C114.688 27.6162 113.005 31.2459 110.84 33.6568C108.669 36.0735 106.172 37.1265 103.838 36.8031L103.289 40.7652C107.314 41.3231 111.045 39.415 113.816 36.3294C116.592 33.2382 118.564 28.8244 119.216 23.8382L115.249 23.3196Z" fill="black" mask="url(#path-22-inside-3)"/>
<path d="M97.7197 12.8879L97.8012 12.7327L97.8251 12.5591L98.5592 7.21816L113.822 9.37729L114.451 12.1712C112.859 11.5503 111.155 11.2655 109.439 11.344C106.997 11.4558 104.641 12.2988 102.653 13.767L102.626 13.7867L102.601 13.808C101.573 14.6775 100.386 15.3128 99.1166 15.6763C98.2234 15.9319 97.3018 16.0495 96.3806 16.0272C96.7433 14.9444 97.1912 13.8943 97.7197 12.8879Z" fill="white" stroke="black" stroke-width="2"/>
<path d="M115.695 16.5239L115.402 16.0139L114.813 16.0233C114.167 16.0335 113.53 15.827 112.997 15.4271C112.462 15.0266 112.059 14.4518 111.853 13.7824L111.842 13.7471L111.829 13.7126C111.017 11.6297 109.235 10.7676 107.362 10.7345C105.544 10.7024 103.578 11.4302 102.007 12.5437L101.962 12.5754L101.921 12.6118C100.786 13.6199 99.4095 14.2759 97.9466 14.5124C96.5138 14.7442 95.0473 14.5656 93.7022 13.9947C93.6931 13.9665 93.6819 13.9166 93.675 13.8342C93.6515 13.5563 93.7065 13.1118 93.8887 12.497C94.2479 11.2846 95.0086 9.71191 95.9871 8.10998C96.9606 6.51606 98.1155 4.94915 99.2254 3.74576C99.7806 3.14373 100.31 2.64895 100.785 2.28955C101.276 1.91907 101.642 1.74413 101.876 1.69276L101.876 1.69278L101.882 1.69138C107.777 0.356497 112.091 1.03584 115.219 2.32885C118.359 3.62719 120.382 5.57546 121.65 6.91335L121.657 6.92017L121.663 6.92686C125.681 11.0064 125.974 16.85 124.614 21.8714C123.937 24.3677 122.868 26.587 121.724 28.178C121.151 28.974 120.577 29.588 120.048 30.0011C119.513 30.4191 119.094 30.5763 118.813 30.5961C118.031 30.6273 117.504 30.5008 117.145 30.3163C116.796 30.1369 116.54 29.8703 116.347 29.4991C115.927 28.6938 115.825 27.4505 115.907 25.8475C115.947 25.0694 116.026 24.2558 116.109 23.4227C116.113 23.3797 116.117 23.3366 116.122 23.2934C116.2 22.5104 116.28 21.71 116.325 20.9467C116.415 19.4022 116.39 17.7286 115.695 16.5239ZM93.7089 14.0127C93.7152 14.0201 93.7175 14.0254 93.717 14.0262C93.7166 14.0269 93.7134 14.0232 93.7089 14.0127Z" fill="white" stroke="black" stroke-width="2"/>
<path d="M114.534 21.2261C114.56 21.1789 114.582 21.1429 114.596 21.1194C114.607 21.106 114.621 21.0881 114.639 21.0665C114.689 21.0066 114.765 20.9195 114.862 20.819C115.06 20.6132 115.326 20.3754 115.623 20.196C115.923 20.0144 116.195 19.9291 116.426 19.9334C116.625 19.9371 116.896 20.0072 117.234 20.346C117.473 20.5858 117.68 21.0963 117.696 21.8926C117.711 22.659 117.541 23.5309 117.226 24.2958C116.903 25.0773 116.478 25.6294 116.071 25.8906C115.74 26.1025 115.388 26.1585 114.895 25.8621C114.274 25.4886 113.984 25.0501 113.847 24.6178C113.703 24.1597 113.71 23.633 113.82 23.0876C113.929 22.5457 114.128 22.0404 114.308 21.6625C114.396 21.476 114.477 21.3265 114.534 21.2261Z" fill="white" stroke="black" stroke-width="2"/>
<path d="M91.5869 15.8067C91.5538 15.8021 91.5214 15.7976 91.4899 15.7932C91.4387 12.3381 92.5839 8.97385 94.7213 6.32774C96.9643 3.55087 100.124 1.78083 103.552 1.35578L116.959 7.60451L116.154 16.0326C115.663 16.2557 115.022 16.451 114.236 16.6102C113.209 16.8178 111.995 16.9523 110.654 17.0262C107.972 17.1741 104.862 17.0761 101.89 16.8759C98.9234 16.676 96.1177 16.3759 94.0522 16.1255C93.02 16.0004 92.1741 15.8878 91.5869 15.8067Z" fill="white" stroke="black" stroke-width="2"/>
<path d="M133.041 47.3636C127.84 49.1117 119.259 50.4809 105.759 48.9466C110.349 43.1359 113.524 36.256 115.015 28.8958L118.09 32.1444L119.272 33.393L119.773 31.7482L123.388 19.8761L123.499 19.5135L123.341 19.1688L118.629 8.86622L117.197 3.22955C117.4 3.3381 117.618 3.46114 117.852 3.60032C119.4 4.52343 121.601 6.16094 124.103 8.99429C129.061 14.608 135.223 24.943 139.801 43.7666C139.563 43.9846 139.192 44.2967 138.662 44.6649C137.556 45.4338 135.756 46.4513 133.041 47.3636Z" fill="white" stroke="black" stroke-width="2"/>
<path d="M20.2461 3.15191C16.252 -0.216282 10.8279 0.548321 7.73592 4.52726C4.64393 8.50619 5.14326 15.0782 9.04994 17.5595C12.9566 20.0408 18.7121 20.9826 21.5597 16.1848C24.4072 11.3869 24.2409 6.52088 20.2461 3.15191Z" fill="#FF5134"/>
</g>
<defs>
<linearGradient id="paint0_linear" x1="95.3795" y1="162.709" x2="95.5877" y2="249.638" gradientUnits="userSpaceOnUse">
<stop stop-color="white"/>
<stop offset="0.614583" stop-color="white"/>
<stop offset="1" stop-color="white" stop-opacity="0"/>
</linearGradient>
<linearGradient id="paint1_linear" x1="95.4463" y1="122.027" x2="91.0926" y2="238.521" gradientUnits="userSpaceOnUse">
<stop/>
<stop offset="1" stop-opacity="0"/>
</linearGradient>
<linearGradient id="paint2_linear" x1="137.506" y1="196.198" x2="160.882" y2="246.339" gradientUnits="userSpaceOnUse">
<stop stop-color="white"/>
<stop offset="1" stop-color="white" stop-opacity="0"/>
</linearGradient>
<linearGradient id="paint3_linear" x1="129.02" y1="140.909" x2="153.611" y2="241.555" gradientUnits="userSpaceOnUse">
<stop/>
<stop offset="1" stop-opacity="0"/>
</linearGradient>
<clipPath id="clip0">
<rect width="193.356" height="333" fill="white" transform="translate(0.822266 -0.00012207)"/>
</clipPath>
</defs>
</svg>
