<svg width="30" height="27" viewBox="0 0 30 27" fill="none" xmlns="http://www.w3.org/2000/svg">
<path d="M7.46812 22.8239L7.47206 22.8252L6.03602 25.3124C5.51184 26.2204 4.35094 26.5314 3.44302 26.0072C2.53526 25.4831 2.22403 24.3222 2.74821 23.4142L3.80609 21.582L3.90764 21.4061C4.08893 21.1456 4.53633 20.6957 5.43129 20.7804C5.43129 20.7804 7.53736 21.0089 7.68977 22.1035C7.68977 22.1035 7.71044 22.4636 7.46812 22.8239ZM27.8353 16.4714H23.3574C23.0524 16.4509 22.9194 16.342 22.8669 16.2787L22.8636 16.2729L18.0702 7.97037L18.0639 7.97447L17.7765 7.56235C17.3053 6.84178 16.5572 8.68453 16.5572 8.68453C15.6639 10.7379 16.684 13.0724 17.0395 13.778L23.6975 25.31C24.2215 26.2177 25.3824 26.529 26.2905 26.0046C27.1983 25.4804 27.5095 24.3195 26.9852 23.4116L25.3204 20.528C25.2881 20.4581 25.232 20.2685 25.5734 20.2677H27.8353C28.8837 20.2677 29.7335 19.4178 29.7335 18.3695C29.7335 17.3211 28.8837 16.4714 27.8353 16.4714ZM19.1377 19.0518C19.1377 19.0518 19.3768 20.2677 18.4519 20.2677H1.8982C0.849844 20.2677 0 19.4178 0 18.3695C0 17.3211 0.849844 16.4713 1.8982 16.4713H6.15398C6.84108 16.4316 7.00383 16.0349 7.00383 16.0349L7.00777 16.0368L12.5629 6.41489L12.5613 6.41457C12.6625 6.22868 12.5782 6.05297 12.5636 6.02524L10.7289 2.84752C10.2047 1.93976 10.5157 0.77869 11.4237 0.254674C12.3316 -0.269506 13.4925 0.0413929 14.0167 0.949315L14.8675 2.42309L15.7169 0.95194C16.241 0.0441817 17.4019 -0.267044 18.3099 0.257299C19.2178 0.781479 19.5288 1.94222 19.0047 2.85014L11.2744 16.2393C11.2406 16.3208 11.2302 16.4488 11.4817 16.4713H16.1024L16.1034 16.5164C16.1034 16.5164 18.774 16.5579 19.1377 19.0518Z" fill="white"/>
</svg>
