<svg width="32" height="33" viewBox="0 0 32 33" fill="none" xmlns="http://www.w3.org/2000/svg">
<path d="M0 15.9565C0 17.9136 0.352063 19.7884 0.995188 21.5217L16 22.913L31.0048 21.5217C31.6479 19.7884 32 17.9136 32 15.9565C32 13.9994 31.6479 12.1246 31.0048 10.3913L16 9L0.995188 10.3913C0.352063 12.1246 0 13.9994 0 15.9565Z" fill="#FFDA44"/>
<path d="M31.0096 10.4348C28.7489 4.34206 22.8842 0 16.0048 0C9.12537 0 3.26069 4.34206 1 10.4348H31.0096Z" fill="#D80027"/>
<path d="M1 22C3.26069 28.0928 9.12537 32.4348 16.0048 32.4348C22.8842 32.4348 28.7489 28.0928 31.0096 22H1Z" fill="#D80027"/>
</svg>
