<svg width="32" height="32" viewBox="0 0 32 32" fill="none" xmlns="http://www.w3.org/2000/svg">
<path d="M1 21.3912C3.26069 27.484 9.12537 31.826 16.0048 31.826C22.8842 31.826 28.7489 27.484 31.0096 21.3912L16.0048 20L1 21.3912Z" fill="#FFDA44"/>
<path d="M16.0048 0C9.12537 0 3.26069 4.342 1 10.4348L16.0048 11.8261L31.0096 10.4347C28.7489 4.342 22.8842 0 16.0048 0Z" fill="black"/>
<path d="M0.995188 10C0.352063 11.7333 0 13.6081 0 15.5652C0 17.5223 0.352063 19.3971 0.995188 21.1304H31.0049C31.648 19.3971 32 17.5223 32 15.5652C32 13.6081 31.648 11.7333 31.0048 10H0.995188Z" fill="#D80027"/>
</svg>
