<svg width="18" height="19" viewBox="0 0 18 19" fill="none" xmlns="http://www.w3.org/2000/svg">
<path d="M17.261 7.58858H8.93404V11.0396H13.726C13.28 13.2326 11.413 14.4926 8.93404 14.4926C8.24038 14.4938 7.5533 14.358 6.91222 14.0931C6.27114 13.8281 5.68868 13.4392 5.19823 12.9487C4.70778 12.4581 4.31899 11.8756 4.05418 11.2345C3.78936 10.5933 3.65372 9.90624 3.65504 9.21258C3.65386 8.519 3.78959 7.832 4.05447 7.19099C4.31934 6.54998 4.70814 5.96756 5.19858 5.47712C5.68902 4.98668 6.27144 4.59788 6.91245 4.333C7.55347 4.06813 8.24046 3.93239 8.93404 3.93358C10.193 3.93358 11.331 4.38058 12.224 5.11158L14.824 2.51258C13.24 1.13158 11.209 0.279579 8.93404 0.279579C7.75985 0.276147 6.59656 0.504889 5.51109 0.952649C4.42562 1.40041 3.43938 2.05835 2.6091 2.88863C1.77881 3.71892 1.12087 4.70516 0.673111 5.79063C0.225351 6.8761 -0.00339112 8.03939 4.10512e-05 9.21358C-0.00352385 10.3878 0.225128 11.5512 0.67284 12.6367C1.12055 13.7222 1.77849 14.7085 2.6088 15.5388C3.43911 16.3691 4.4254 17.0271 5.51093 17.4748C6.59647 17.9225 7.75981 18.1511 8.93404 18.1476C13.401 18.1476 17.463 14.8986 17.463 9.21358C17.463 8.68558 17.382 8.11658 17.261 7.58858Z" fill="#1E2843"/>
</svg>
