<svg width="23" height="26" viewBox="0 0 23 26" fill="none" xmlns="http://www.w3.org/2000/svg">
<path d="M0.761252 0L13.49 12.7325L0.762502 25.465C0.536178 25.3699 0.343037 25.2099 0.207365 25.0053C0.0716941 24.8007 -0.000450961 24.5605 2.12102e-06 24.315V1.15C9.79324e-05 0.904776 0.0723206 0.664997 0.207679 0.460516C0.343037 0.256034 0.53555 0.0958824 0.761252 0ZM14.3737 13.6162L17.2512 16.4937L3.58 24.41L14.3737 13.6162ZM18.3725 9.61875L21.8812 11.6512C22.0707 11.7611 22.2279 11.9188 22.3372 12.1086C22.4465 12.2984 22.504 12.5135 22.504 12.7325C22.504 12.9515 22.4465 13.1666 22.3372 13.3564C22.2279 13.5462 22.0707 13.7039 21.8812 13.8137L18.3713 15.8462L15.2575 12.7325L18.3725 9.61875ZM3.58 1.055L17.2525 8.97L14.3737 11.8487L3.58 1.055Z" fill="white"/>
</svg>
