<svg width="30" height="30" viewBox="0 0 30 30" fill="none" xmlns="http://www.w3.org/2000/svg">
<path d="M28.6811 5.36176C28.3024 4.38371 27.7236 3.49552 26.9818 2.75403C26.2401 2.01255 25.3516 1.43411 24.3735 1.05575C23.2288 0.626058 22.0195 0.393717 20.7971 0.368618C19.2216 0.299906 18.7226 0.280273 14.7275 0.280273C10.7323 0.280273 10.2202 0.280273 8.65783 0.368618C7.43635 0.392434 6.22794 0.624822 5.08476 1.05575C4.10631 1.43367 3.21767 2.01195 2.47585 2.75349C1.73403 3.49503 1.15541 4.38346 0.77711 5.36176C0.347335 6.50634 0.115527 7.71573 0.0916172 8.9381C0.0212683 10.512 0 11.0109 0 15.0077C0 19.0029 -1.49012e-08 19.5117 0.0916172 21.0774C0.116158 22.3011 0.346836 23.5085 0.77711 24.6554C1.15647 25.6333 1.73565 26.5214 2.47765 27.2628C3.21965 28.0043 4.10815 28.5828 5.08639 28.9614C6.22741 29.4083 7.43633 29.6573 8.6611 29.6976C10.2366 29.7663 10.7356 29.7876 14.7307 29.7876C18.7259 29.7876 19.238 29.7876 20.8004 29.6976C22.0227 29.6727 23.2319 29.4409 24.3767 29.0121C25.3547 28.6328 26.2428 28.0539 26.9845 27.3122C27.7262 26.5705 28.3051 25.6824 28.6844 24.7044C29.1146 23.5592 29.3453 22.3518 29.3699 21.1281C29.4402 19.5542 29.4615 19.0553 29.4615 15.0585C29.4615 11.0617 29.4615 10.5545 29.3699 8.98882C29.3508 7.74916 29.1178 6.5221 28.6811 5.36176Z" fill="#1E2843"/>
<path d="M14.565 7.28027C12.5586 7.28027 10.6344 8.07729 9.21573 9.496C7.79702 10.9147 7 12.8389 7 14.8452C7 16.8516 7.79702 18.7758 9.21573 20.1945C10.6344 21.6132 12.5586 22.4102 14.565 22.4102C16.5713 22.4102 18.4955 21.6132 19.9142 20.1945C21.3329 18.7758 22.1299 16.8516 22.1299 14.8452C22.1299 12.8389 21.3329 10.9147 19.9142 9.496C18.4955 8.07729 16.5713 7.28027 14.565 7.28027ZM14.565 19.7582C13.2615 19.7582 12.0115 19.2404 11.0898 18.3188C10.1681 17.3971 9.65036 16.147 9.65036 14.8436C9.65036 13.5402 10.1681 12.2901 11.0898 11.3684C12.0115 10.4468 13.2615 9.92899 14.565 9.92899C15.8684 9.92899 17.1185 10.4468 18.0401 11.3684C18.9618 12.2901 19.4796 13.5402 19.4796 14.8436C19.4796 16.147 18.9618 17.3971 18.0401 18.3188C17.1185 19.2404 15.8684 19.7582 14.565 19.7582Z" fill="#D1F1FD"/>
<path d="M22.7636 8.80754C23.7377 8.80754 24.5273 8.01793 24.5273 7.0439C24.5273 6.06988 23.7377 5.28027 22.7636 5.28027C21.7896 5.28027 21 6.06988 21 7.0439C21 8.01793 21.7896 8.80754 22.7636 8.80754Z" fill="#D1F1FD"/>
</svg>
