<svg width="101" height="30" viewBox="0 0 101 30" fill="none" xmlns="http://www.w3.org/2000/svg">
<path fill-rule="evenodd" clip-rule="evenodd" d="M86.0478 2.00032C88.084 1.98591 90.0938 2.46056 91.9077 3.38425C93.7216 4.30793 95.2863 5.65355 96.4699 7.30757C98.4718 10.1508 100.927 8.52096 100.927 12.0027V15.9573C100.903 16.8854 100.512 17.7663 99.8395 18.4077C99.1671 19.0492 98.2679 19.3992 97.338 19.3815H96.8342C96.5243 19.3873 96.2246 19.2706 96.0005 19.0568C95.7764 18.843 95.646 18.5494 95.6378 18.2401V11.6295C95.5568 10.5242 95.1581 9.46574 94.4896 8.58097C93.5319 7.24145 92.2653 6.15165 90.7969 5.4036C89.3284 4.65555 87.7012 4.27122 86.0526 4.28308C83.729 4.29822 81.4728 5.06462 79.6223 6.46743C78.1458 7.57161 77.6649 5.14722 78.23 4.61434C80.4776 2.90973 83.225 1.99111 86.0478 2.00032Z" fill="#FF5134"/>
<path d="M24.9411 3.91981C24.5035 4.33599 23.9223 4.56814 23.3179 4.56814C22.7135 4.56814 22.1323 4.33599 21.6947 3.91981C21.4752 3.71068 21.3004 3.45926 21.181 3.18076C21.0616 2.90227 21 2.60248 21 2.29955C21 1.99662 21.0616 1.69683 21.181 1.41834C21.3004 1.13984 21.4752 0.888419 21.6947 0.679289C22.0128 0.356039 22.4205 0.135206 22.8653 0.0452176C23.3102 -0.0447711 23.7718 0.000204095 24.1908 0.174353C24.6099 0.348503 24.9671 0.643854 25.2165 1.02239C25.4659 1.40092 25.5962 1.84531 25.5904 2.29835C25.5988 2.59855 25.5456 2.8973 25.4339 3.17617C25.3223 3.45505 25.1545 3.70813 24.9411 3.91981Z" fill="#FF5134"/>
<path d="M22 7.48741C22.0054 7.08802 22.1694 6.70709 22.4559 6.42828C22.7424 6.14946 23.1281 5.99556 23.5282 6.00037C23.726 5.99595 23.9227 6.03128 24.1065 6.10427C24.2904 6.17726 24.4576 6.28641 24.5983 6.42524C24.738 6.56413 24.848 6.7299 24.9215 6.91248C24.9951 7.09506 25.0308 7.29066 25.0264 7.48741V20.0114C25.0316 20.2083 24.9963 20.4041 24.9226 20.5868C24.849 20.7695 24.7386 20.9352 24.5983 21.0736C24.4597 21.2172 24.2935 21.3314 24.1096 21.4094C23.9258 21.4874 23.728 21.5277 23.5282 21.5277C23.3284 21.5277 23.1307 21.4874 22.9468 21.4094C22.763 21.3314 22.5968 21.2172 22.4581 21.0736C22.3124 20.9377 22.1964 20.7732 22.1176 20.5904C22.0387 20.4076 21.9987 20.2104 22 20.0114V7.48741Z" fill="white"/>
<path d="M39.3338 1.49496C39.3293 1.29763 39.365 1.10144 39.4386 0.918231C39.5122 0.735022 39.6222 0.568586 39.7619 0.428958C39.9017 0.28933 40.0683 0.179402 40.2518 0.105804C40.4353 0.0322048 40.6318 -0.00354094 40.8295 0.000722051C41.0324 -0.00554674 41.2345 0.0290562 41.4238 0.102465C41.613 0.175875 41.7855 0.286586 41.9309 0.427991C42.0707 0.568271 42.1807 0.735304 42.2543 0.919065C42.3278 1.10283 42.3634 1.29953 42.3589 1.49736V13.7393C42.3593 15.2575 41.9079 16.7416 41.0619 18.0032C40.216 19.2648 39.0136 20.2472 37.6074 20.8256C36.2012 21.404 34.6545 21.5523 33.1637 21.2518C31.6729 20.9513 30.3051 20.2155 29.2339 19.1378C28.5117 18.4364 27.941 17.5949 27.557 16.665C27.1729 15.7351 26.9838 14.7366 27.0011 13.7309C27.0002 12.302 27.3993 10.9013 28.1532 9.68671C28.9072 8.4721 29.9861 7.4919 31.2684 6.85663C32.5506 6.22136 33.9851 5.95629 35.4102 6.0913C36.8352 6.22631 38.1942 6.75603 39.3338 7.62074V1.49976V1.49496ZM39.3338 13.7009C39.337 13.0918 39.2187 12.4882 38.9859 11.9252C38.753 11.3622 38.4102 10.8511 37.9774 10.4217C37.5447 9.99225 37.0306 9.65312 36.4652 9.42404C35.8998 9.19497 35.2944 9.08052 34.6842 9.08738C34.0756 9.076 33.4711 9.18943 32.9081 9.42064C32.3452 9.65186 31.8357 9.99594 31.4114 10.4316C30.9755 10.8608 30.6295 11.3721 30.3932 11.9359C30.157 12.4998 30.0354 13.1048 30.0354 13.7159C30.0354 14.327 30.157 14.9321 30.3932 15.4959C30.6295 16.0597 30.9755 16.5711 31.4114 17.0002C31.8313 17.4438 32.3392 17.7952 32.9027 18.032C33.4662 18.2688 34.0729 18.3859 34.6842 18.3757C35.2952 18.3758 35.9001 18.2558 36.4645 18.0224C37.029 17.7889 37.5417 17.4468 37.9736 17.0154C38.4054 16.584 38.7478 16.0719 38.9812 15.5083C39.2146 14.9447 39.3344 14.3407 39.3338 13.7309V13.7009Z" fill="white"/>
<path d="M57.1202 19.0674C56.0446 20.1347 54.677 20.8609 53.1892 21.1549C51.7015 21.4489 50.1598 21.2974 48.758 20.7196C47.3561 20.1418 46.1566 19.1633 45.3101 17.9072C44.4636 16.651 44.0078 15.1732 44 13.6593C44.0006 12.4001 44.3121 11.1605 44.9069 10.05C45.5017 8.9396 46.3614 7.99258 47.4101 7.29271C48.4588 6.59284 49.6641 6.1617 50.9194 6.03742C52.1747 5.91314 53.4413 6.09954 54.6073 6.58015C55.7733 7.06075 56.8026 7.82074 57.6043 8.79292C58.4061 9.76509 58.9554 10.9195 59.2039 12.154C59.4523 13.3885 59.3921 14.6652 59.0287 15.871C58.6653 17.0768 58.0098 18.1746 57.1202 19.0674ZM54.9788 10.36C54.0979 9.49481 52.9105 9.01172 51.6747 9.01575C51.0661 9.00437 50.4616 9.1178 49.8986 9.34902C49.3357 9.58023 48.8262 9.92431 48.4019 10.36C47.966 10.7892 47.6199 11.3005 47.3837 11.8643C47.1475 12.4281 47.0259 13.0332 47.0259 13.6443C47.0259 14.2554 47.1475 14.8605 47.3837 15.4243C47.6199 15.9881 47.966 16.4994 48.4019 16.9286C48.822 17.372 49.3299 17.7232 49.8933 17.96C50.4568 18.1968 51.0634 18.3139 51.6747 18.304C52.2904 18.3124 52.9012 18.1946 53.4695 17.9581C54.0378 17.7215 54.5515 17.3711 54.9788 16.9286C55.8427 16.053 56.3269 14.8733 56.3269 13.6443C56.3269 12.4153 55.8427 11.2356 54.9788 10.36Z" fill="white"/>
<path fill-rule="evenodd" clip-rule="evenodd" d="M80.4059 8.30738C78.9701 9.69799 78.1254 11.5868 78.0469 13.5822C78.0158 13.8793 78.0002 14.1777 78 14.4764C78.0022 14.7499 78.0267 15.0229 78.0733 15.2925C78.3968 18.539 82.3466 25.2277 84.9665 28.7118C85.8082 29.8376 86.6162 30.1137 87.6899 28.6962C90.3219 25.2157 94.2476 18.5354 94.571 15.2937C94.6185 15.0238 94.6434 14.7504 94.6456 14.4764C94.6454 14.1761 94.6298 13.8761 94.5987 13.5774C94.5173 11.5811 93.6671 9.69317 92.2252 8.30738C90.6161 6.82385 88.506 6 86.3156 6C84.1251 6 82.0151 6.82385 80.4059 8.30738ZM86.324 8.97828C87.2419 8.97931 88.139 9.25123 88.9025 9.75985C89.666 10.2685 90.2618 10.9911 90.6149 11.8368C90.968 12.6825 91.0628 13.6136 90.8872 14.5129C90.7116 15.4123 90.2735 16.2397 89.6281 16.8911C89.2007 17.3336 88.6871 17.6839 88.1188 17.9205C87.5505 18.1571 86.9397 18.2748 86.324 18.2666C85.7129 18.2763 85.1065 18.159 84.5433 17.9223C83.9801 17.6855 83.4723 17.3343 83.0523 16.8911C82.6165 16.462 82.2704 15.9506 82.0342 15.3868C81.798 14.823 81.6764 14.2179 81.6764 13.6068C81.6764 12.9957 81.798 12.3907 82.0342 11.8268C82.2704 11.263 82.6165 10.7517 83.0523 10.3225C83.4766 9.88699 83.9858 9.543 84.5485 9.31179C85.1113 9.08058 85.7156 8.96707 86.324 8.97828Z" fill="#FF5134"/>
<path d="M73.3285 1.49495C73.3239 1.29757 73.3594 1.1013 73.4329 0.918017C73.5064 0.734731 73.6164 0.568226 73.7562 0.428563C73.896 0.288901 74.0627 0.178979 74.2463 0.105441C74.4299 0.0319021 74.6265 -0.00372668 74.8242 0.000706942C75.0271 -0.00549315 75.2292 0.0291415 75.4184 0.102547C75.6076 0.175953 75.7801 0.286627 75.9256 0.427976C76.0654 0.568256 76.1754 0.735288 76.2489 0.919049C76.3225 1.10281 76.3581 1.29951 76.3536 1.49735V13.7393C76.3663 14.7536 76.1772 15.7604 75.7971 16.7012C75.417 17.642 74.8536 18.4981 74.1395 19.2199C73.4254 19.9417 72.5749 20.5148 71.6372 20.9059C70.6995 21.297 69.6934 21.4984 68.6771 21.4984C67.6608 21.4984 66.6547 21.297 65.717 20.9059C64.7794 20.5148 63.9288 19.9417 63.2147 19.2199C62.5006 18.4981 61.9372 17.642 61.5571 16.7012C61.177 15.7604 60.9879 14.7536 61.0006 13.7393C60.9988 12.3105 61.3969 10.9097 62.1501 9.69466C62.9032 8.47964 63.9813 7.49878 65.263 6.86266C66.5447 6.22654 67.9789 5.96045 69.404 6.09439C70.829 6.22833 72.1883 6.75697 73.3285 7.62072V1.49975V1.49495ZM73.3285 13.7009C73.3317 13.0918 73.2134 12.4882 72.9806 11.9252C72.7477 11.3622 72.4049 10.8511 71.9721 10.4216C71.5394 9.99224 71.0253 9.65311 70.4599 9.42403C69.8945 9.19495 69.2891 9.0805 68.6789 9.08736C68.0703 9.07598 67.4658 9.18941 66.9028 9.42063C66.3399 9.65184 65.8304 9.99592 65.4061 10.4316C64.9702 10.8608 64.6242 11.3721 64.3879 11.9359C64.1517 12.4997 64.0301 13.1048 64.0301 13.7159C64.0301 14.327 64.1517 14.9321 64.3879 15.4959C64.6242 16.0597 64.9702 16.571 65.4061 17.0002C65.826 17.4438 66.3339 17.7952 66.8974 18.032C67.4609 18.2688 68.0676 18.3858 68.6789 18.3756C69.2898 18.3758 69.8948 18.2557 70.4592 18.0223C71.0236 17.7889 71.5364 17.4467 71.9683 17.0154C72.4001 16.584 72.7425 16.0719 72.9759 15.5083C73.2093 14.9447 73.3291 14.3407 73.3285 13.7309V13.7009Z" fill="white"/>
<path d="M17.9377 6.75577C18.1485 6.40963 18.4849 6.15802 18.8769 6.05338C19.2689 5.94874 19.6862 5.99914 20.0419 6.19408C20.2146 6.28465 20.3665 6.41021 20.4878 6.56273C20.6091 6.71525 20.6972 6.89137 20.7465 7.07982C20.8334 7.46694 20.7666 7.87264 20.5601 8.2116L13.8317 20.7488C13.7359 20.9267 13.604 21.0827 13.4444 21.2067C13.2847 21.3307 13.1009 21.42 12.9046 21.4689C12.7123 21.5283 12.51 21.5482 12.3098 21.5276C12.1096 21.507 11.9156 21.4462 11.7395 21.3489C11.5662 21.255 11.415 21.1251 11.2961 20.968C11.1773 20.8109 11.0935 20.6301 11.0506 20.438C10.9477 20.0498 11.0031 19.6369 11.2045 19.2894L17.9377 6.75577Z" fill="white"/>
<path d="M6.84974 7.76279C6.74573 7.58784 6.60785 7.43533 6.44414 7.31416C6.28044 7.19299 6.09418 7.10559 5.89626 7.05707C5.70487 7.00221 5.50432 6.98668 5.30674 7.01144C5.10916 7.03619 4.91867 7.10071 4.7468 7.2011C4.57408 7.29167 4.42219 7.41723 4.30087 7.56975C4.17954 7.72227 4.09145 7.89839 4.04221 8.08684C3.9952 8.27822 3.98736 8.4771 4.01918 8.67158C4.05099 8.86605 4.12181 9.05211 4.22738 9.21862L10.9979 20.6937C11.0968 20.8691 11.2297 21.0232 11.3888 21.1468C11.548 21.2704 11.7302 21.3612 11.9249 21.4138C12.1172 21.4735 12.3195 21.4936 12.5198 21.473C12.7201 21.4523 12.914 21.3914 13.09 21.2937C13.2633 21.1998 13.4145 21.0699 13.5333 20.9128C13.6522 20.7556 13.7359 20.5749 13.779 20.3828C13.8329 20.1911 13.8467 19.9904 13.8194 19.7932C13.792 19.596 13.7243 19.4065 13.6203 19.2366L6.84974 7.76159V7.76279Z" fill="white"/>
<path d="M2.84974 1.76279C2.74589 1.58771 2.60806 1.4351 2.44432 1.31391C2.28059 1.19273 2.09426 1.10541 1.89626 1.05707C1.70487 1.00221 1.50431 0.986683 1.30674 1.01144C1.10916 1.03619 0.918669 1.10071 0.746799 1.2011C0.574077 1.29167 0.422196 1.41723 0.30087 1.56975C0.179545 1.72227 0.091447 1.89839 0.0422133 2.08684C-0.00480391 2.27822 -0.0126389 2.4771 0.0191779 2.67158C0.0509948 2.86605 0.121809 3.05211 0.227378 3.21862L6.9979 14.6937C7.09678 14.8691 7.22967 15.0232 7.38884 15.1468C7.548 15.2704 7.73024 15.3612 7.92493 15.4138C8.11718 15.4734 8.31954 15.4935 8.51979 15.4729C8.72003 15.4522 8.91402 15.3913 9.09002 15.2937C9.2634 15.1999 9.4146 15.07 9.53344 14.9128C9.65228 14.7557 9.73601 14.575 9.77898 14.3828C9.83186 14.1912 9.84464 13.9907 9.8165 13.7939C9.78837 13.5971 9.71993 13.4082 9.61545 13.239L2.84854 1.76399L2.84974 1.76279Z" fill="white"/>
</svg>
