<svg width="655" height="628" viewBox="0 0 655 628" fill="none" xmlns="http://www.w3.org/2000/svg">
<g filter="url(#filter0_f)">
<path d="M185.908 223.493C119.042 236.429 28 297.512 28 297.512C28 297.512 121.207 251.348 185.908 243.231C303.378 228.495 367.429 359.2 479.166 320.071C550.16 295.209 626.5 196 626.5 196C626.5 196 546.045 277.282 479.166 297.512C366.109 331.711 301.874 201.058 185.908 223.493Z" fill="#FF5134"/>
</g>
<path d="M185.908 204.493C119.042 217.429 28 278.513 28 278.513C28 278.513 121.207 232.348 185.908 224.232C303.378 209.495 367.429 340.2 479.166 301.071C550.16 276.21 626.5 177 626.5 177C626.5 177 546.045 258.282 479.166 278.513C366.109 312.712 301.874 182.059 185.908 204.493Z" fill="#FF5134"/>
<g filter="url(#filter1_f)">
<path d="M523.477 240.995C507.637 258.557 483.759 272.98 483.759 272.98C483.759 272.98 507.777 250.65 518.06 232.746C533.103 206.554 537.157 157.798 537.157 157.798C537.157 157.798 547.891 213.929 523.477 240.995Z" fill="#FF5134"/>
</g>
<path d="M519.477 232.995C503.637 250.557 479.759 264.98 479.759 264.98C479.759 264.98 503.777 242.65 514.06 224.746C529.103 198.554 533.157 149.798 533.157 149.798C533.157 149.798 543.891 205.929 519.477 232.995Z" fill="#FF5134"/>
<path d="M514.002 413.931C505.3 424.181 452.646 483.943 384.276 481.448C339.143 479.798 329.034 452.547 291.731 461.756C261.47 469.201 251.849 491.126 227.243 489.063C205.994 487.272 190.081 468.976 180 453.898L209.07 421.546L549.636 351C541.789 374.017 529.703 395.362 514.002 413.931Z" fill="#D9B7BD"/>
<path d="M327.078 627.816C450.28 627.816 550.155 618.903 550.155 607.908C550.155 596.913 450.28 588 327.078 588C203.875 588 104 596.913 104 607.908C104 618.903 203.875 627.816 327.078 627.816Z" fill="#1E2843"/>
<path d="M145.147 142.804C144.148 140.999 143.481 139.03 143.178 136.99C142.99 135.865 142.896 135.208 143.178 135.021C143.928 134.646 147.116 139.428 148.992 142.804C149.648 144.023 150.773 146.18 152.836 150.587C155.837 156.776 156.118 157.339 156.681 158.37C158.335 161.165 160.284 163.774 162.495 166.154C161.439 166.31 160.361 166.212 159.35 165.87C158.34 165.528 157.425 164.95 156.681 164.184" fill="#FFC7BB"/>
<path d="M163.713 164.106C162.681 164.95 161.65 165.888 160.712 166.731H160.524C159.86 166.716 159.212 166.522 158.649 166.169L134.08 121.064C133.976 120.731 133.973 120.374 134.074 120.04C134.174 119.705 134.372 119.409 134.643 119.188C134.836 119.058 135.066 118.992 135.299 119.001C136.331 119.282 137.456 119.657 138.488 119.939C146.927 134.567 155.367 149.383 163.713 164.106Z" fill="#6A656C"/>
<path d="M163.35 163.01C162.975 163.198 162.6 163.479 162.131 163.667C153.785 149.507 145.346 135.254 137 121.094C137.656 121.094 138.407 121 139.063 121L163.35 163.01Z" fill="white"/>
<path d="M297.557 289.98C291.836 298.232 287.148 304.89 283.959 309.391C273.363 324.395 269.237 330.021 262.673 340.336C252.733 355.997 246.356 368 239.417 381.034C234.166 390.88 227.414 404.009 220.006 419.763C218.693 430.078 217.38 440.393 216.161 450.708C216.448 452.635 216.448 454.594 216.161 456.522C215.87 458.565 215.202 460.536 214.192 462.336C202.658 482.966 193.187 499.564 185.122 512.692C185.122 512.692 181.465 518.694 167.962 552.171C167.802 552.526 167.707 552.907 167.68 553.296C167.68 555.171 169.743 555.922 169.65 557.141C169.65 557.609 169.275 558.266 167.68 559.11C169.65 570.081 171.525 581.053 173.494 592.024C175.204 592.791 176.572 594.159 177.339 595.869C178.277 598.12 177.151 599.432 177.339 601.683C177.902 607.216 185.591 609.091 185.122 611.342C184.466 613.874 173.869 615.093 171.525 611.342C170.4 609.56 171.525 607.309 169.556 603.558C168.806 602.058 168.149 601.589 167.587 601.589C166.555 601.589 165.805 603.183 165.617 603.558C163.742 607.591 167.305 611.342 165.617 613.217C164.492 614.53 161.398 614.436 159.803 613.217C158.772 612.467 158.584 611.248 157.834 611.248C157.084 611.248 157.084 612.654 155.865 613.217C155.231 613.462 154.529 613.462 153.896 613.217C153.447 613.047 153.039 612.784 152.699 612.444C152.36 612.105 152.096 611.697 151.926 611.248C151.619 611.393 151.282 611.469 150.942 611.469C150.601 611.469 150.265 611.393 149.957 611.248C149.113 610.685 148.832 608.904 149.957 607.403C148.176 607.966 146.488 608.06 146.112 607.403C145.55 606.559 147.238 604.496 148.082 603.558C149.113 602.246 149.488 602.339 150.051 601.589C151.833 599.245 149.77 596.432 150.051 589.961C150.071 588.605 150.228 587.254 150.52 585.929C151.176 582.741 152.395 580.865 153.989 572.519C154.938 567.403 155.595 562.237 155.959 557.047C154.927 556.109 153.802 554.702 153.989 553.202C154.271 550.952 157.272 549.639 157.834 549.357C165.711 545.231 160.179 508.847 167.493 481.559C170.587 469.931 175.932 461.492 184.935 446.676C190.714 437.175 197.203 428.125 204.346 419.603C205.002 411.914 206.127 401.317 208.19 388.658C211.941 365.402 214.567 363.433 221.788 330.518C226.57 308.763 226.664 303.887 231.446 293.759C235.745 284.883 240.929 276.463 246.919 268.628C250.576 263.752 254.046 259.813 256.578 257C262.738 263.15 269.217 268.972 275.989 274.442C283.678 280.509 290.899 285.573 297.557 289.98Z" fill="#F5AE9F"/>
<path d="M257 113.728H274.442C276.599 113.353 279.037 109.227 280.256 92.4419L297.698 75C297.317 80.8077 297.317 86.6341 297.698 92.4419C298.073 97.9745 298.542 100.975 299.667 104.07C300.603 106.821 301.895 109.438 303.512 111.853C305.539 114.958 308.19 117.608 311.295 119.636C314.218 121.564 317.505 122.873 320.953 123.481C322.923 124.137 324.798 124.794 326.767 125.45C325.455 143.548 324.173 161.615 322.923 179.651C315.327 181.058 309.232 186.309 307.45 193.248C306.304 197.864 307.011 202.745 309.419 206.845C302.266 207.237 295.093 206.574 288.133 204.876C284.152 203.935 280.262 202.649 276.505 201.031C269.847 171.868 263.47 142.798 257 113.728Z" fill="#F5AE9F"/>
<path d="M276.216 201.116C273.319 200.727 270.382 200.758 267.495 201.209C265.171 201.535 262.901 202.165 260.743 203.085C260.274 200.834 259.618 197.458 258.774 193.426C256.992 183.861 256.617 179.548 254.929 170.17C254.366 166.888 253.71 163.7 252.96 160.512C246.931 147.168 244.259 132.552 245.177 117.938C246.302 117.282 247.615 116.626 249.021 115.969C251.514 114.962 254.132 114.299 256.804 114C263.369 142.976 269.745 172.046 276.216 201.116Z" fill="#F5AE9F"/>
<path d="M326.817 125C330.662 126.313 334.6 127.626 338.445 128.845C339.758 135.315 341.07 141.785 342.289 148.256C343.432 153.34 344.091 158.52 344.259 163.728C344.446 169.73 343.884 173.481 342.289 186.984C341.821 190.829 341.164 196.83 340.32 204.426V260.596L332.537 262.566C330.568 241.935 328.692 221.212 326.723 200.581C320.394 175.781 320.426 149.785 326.817 125Z" fill="#F5AE9F"/>
<path d="M316.796 131C315.991 132.2 315.33 133.49 314.826 134.845C312.482 141.878 315.764 148.442 316.796 150.317L318.765 148.348C316.703 146.218 315.359 143.497 314.92 140.565C314.372 137.255 315.038 133.858 316.796 131Z" fill="#F76F81"/>
<path d="M266.563 122C267.278 123.264 267.815 124.621 268.158 126.032C269.845 133.253 266.001 139.442 264.782 141.317C264.219 140.661 263.656 139.911 263 139.254C265.223 137.326 266.822 134.78 267.595 131.94C268.384 128.605 268.021 125.102 266.563 122Z" fill="#F76F81"/>
<path d="M327.109 125C325.371 127.901 324.676 131.309 325.14 134.659C325.651 137.567 326.985 140.269 328.985 142.442C333.861 147.881 340.988 148.256 342.582 148.256C341.269 141.785 339.956 135.315 338.737 128.845C334.893 127.654 331.048 126.313 327.109 125Z" fill="#FFC7BB"/>
<path d="M245.247 117.845C244.918 121.714 244.918 125.604 245.247 129.473C245.573 133.397 246.231 137.287 247.217 141.101C251.737 138.421 255.178 134.245 256.942 129.295C258.706 124.345 258.682 118.934 256.875 114C254.199 114.275 251.577 114.939 249.092 115.969C247.726 116.403 246.43 117.035 245.247 117.845Z" fill="#FFC7BB"/>
<path d="M322.45 160C321.452 171.008 322.116 182.104 324.419 192.914C324.982 195.634 325.638 198.166 326.388 200.698C327.701 214.295 329.014 227.798 330.233 241.395L339.892 243.365V204.664L341.861 187.222C340.642 189.661 339.423 190.973 338.016 191.067C333.703 191.32 328.545 181.005 322.45 160Z" fill="#F76F81"/>
<path d="M303.817 144.018C303.447 143.963 303.069 144.035 302.745 144.222C302.422 144.41 302.171 144.701 302.035 145.05C301.941 145.425 302.035 145.987 302.316 146.081C302.785 146.175 303.629 145.331 303.817 144.487C303.817 144.421 303.911 144.112 303.817 144.018Z" fill="white"/>
<path d="M309.447 147.368C307.665 145.961 299.694 148.681 298.287 153.932C297.537 156.464 298.287 159.934 300.163 160.496C302.882 161.34 308.04 155.901 309.447 150.556C309.822 149.337 310.197 148.053 309.447 147.368Z" fill="#FFC7BB"/>
<path d="M302.889 151.143C302.139 150.581 298.763 151.706 298.107 153.957C297.826 155.082 298.107 156.488 298.857 156.77C300.076 157.145 302.233 154.801 302.796 152.55C303.077 151.987 303.265 151.425 302.889 151.143Z" fill="white"/>
<path d="M290 147C290.824 148.189 291.486 149.482 291.969 150.845C294.032 157.128 290.938 162.941 290 164.442C291.313 165.098 292.626 165.755 293.845 166.411C295.158 165.755 296.47 165.098 297.689 164.442C296.587 162.685 295.912 160.693 295.72 158.628C295.541 155.891 296.23 153.167 297.689 150.845C296.919 151.377 296.252 152.044 295.72 152.814C294.609 154.567 293.934 156.56 293.751 158.628C294.078 156.704 294.078 154.738 293.751 152.814C293.142 150.53 291.83 148.496 290 147Z" fill="#F76F81"/>
<path d="M266.535 183.737C262.33 181.682 258.622 178.739 255.667 175.11C255.311 174.65 255.067 174.294 254.908 174.078C253.876 172.39 250.5 167.139 251.063 160.481C251.719 152.885 256.783 152.229 258.846 143.039C259.502 140.038 259.315 136.475 258.846 129.442C258.377 122.128 257.533 116.22 256.877 112H262.691C263.066 116.926 263.863 121.811 265.073 126.601C266.338 131.627 266.892 134.224 268.505 137.131C271.243 142.054 274.881 144.793 278.651 147.587C283.357 151.046 288.587 153.728 294.142 155.53C298.786 153.762 303.195 151.431 307.271 148.59C312.381 145.027 316.32 142.27 318.898 137.131C321.185 132.315 321.875 126.894 320.868 121.659C322.837 122.971 324.712 124.284 326.682 125.503C326.025 134.506 325.369 143.602 324.712 152.604C331.183 158.324 334.277 166.482 332.496 173.89C330.901 180.548 325.744 184.674 324.712 185.518C322.382 187.277 319.742 188.581 316.929 189.363C305.067 192.955 291.798 191.332 291.798 191.332C291.798 191.332 278.257 189.832 266.535 183.737Z" fill="white"/>
<path d="M346.01 245C356.887 264.036 360.545 280.634 361.482 293.387C363.17 315.705 356.887 329.115 349.854 365.03C345.728 386.129 343.478 404.134 342.071 417.356C343.943 425.632 345.227 434.03 345.916 442.487C346.947 455.24 346.572 467.993 343.947 487.029C340.621 510.654 335.447 533.981 328.474 556.797C329.088 556.996 329.623 557.385 330.002 557.907C330.381 558.43 330.585 559.058 330.585 559.704C330.585 560.349 330.381 560.978 330.002 561.5C329.623 562.022 329.088 562.411 328.474 562.611C330.903 571.27 334.137 579.684 338.133 587.742C340.467 592.418 343.066 596.958 345.916 601.339C347.885 604.527 348.542 606.497 347.885 607.153C347.604 607.434 346.947 607.434 345.916 607.153C346.109 607.795 346.109 608.48 345.916 609.122C345.579 609.826 345.021 610.4 344.326 610.756C343.631 611.112 342.839 611.229 342.071 611.091C341.872 611.705 341.483 612.24 340.961 612.619C340.438 612.998 339.81 613.203 339.164 613.203C338.519 613.203 337.89 612.998 337.368 612.619C336.846 612.24 336.457 611.705 336.257 611.091C336.399 611.4 336.472 611.736 336.472 612.076C336.472 612.416 336.399 612.752 336.257 613.061C335.601 614.092 333.538 613.717 332.413 613.061C331.643 612.528 330.976 611.861 330.443 611.091C329.224 609.122 329.881 607.716 328.474 605.277C328.005 604.434 327.443 603.308 326.505 603.308C325.567 603.308 324.817 604.34 324.536 605.277C324.342 605.92 324.342 606.605 324.536 607.247C324.817 608.372 325.473 611.467 324.536 613.061C323.129 615.405 317.878 614.655 314.877 613.061C313.283 612.217 313.001 611.467 312.908 611.091C312.626 609.872 313.752 609.122 314.877 607.247C315.533 606.121 317.784 602.464 316.846 599.464C316.19 597.494 314.596 596.932 314.877 595.619C315.158 594.306 316.565 593.837 316.846 593.65C318.815 592.618 320.316 586.617 318.815 566.549C317.797 566.544 316.822 566.138 316.102 565.418C315.382 564.698 314.976 563.723 314.971 562.704C314.992 561.691 315.404 560.726 316.121 560.01C316.837 559.293 317.803 558.881 318.815 558.86C319.929 543.331 319.268 527.727 316.846 512.348C314.596 498.282 311.407 488.248 313.001 471.65C313.769 464.472 315.054 457.358 316.846 450.364C319.336 439.835 322.563 429.494 326.505 419.419C326.224 414.917 325.755 408.166 324.536 400.007C323.504 392.787 322.379 388.004 320.878 380.69C318.159 367.562 316.565 362.123 314.783 349.651C313.377 339.992 313.377 336.335 312.626 328.833C312.251 324.801 311.782 321.519 310.845 314.767C310.001 308.391 308.688 299.951 307 289.636C312.064 284.947 317.221 279.79 322.473 274.164C331.001 265.014 338.867 255.268 346.01 245Z" fill="#F5AE9F"/>
<path d="M272.027 214.599C268.744 217.787 262.368 216.005 252.615 212.629C231.329 205.409 223.077 200.72 204.228 193.218C191.793 188.205 178.923 184.344 165.781 181.684C165.73 181.69 165.679 181.685 165.63 181.669C165.581 181.653 165.537 181.626 165.5 181.59C164.093 181.215 164.187 179.809 161.655 177.746C159.123 175.683 157.623 175.964 155.841 173.901C154.929 172.767 154.259 171.459 153.872 170.056C152.372 165.368 150.777 164.055 148.058 158.428C144.026 149.989 141.119 139.58 142.244 139.017C143.182 138.642 146.745 144.456 148.058 146.801C150.684 151.395 151.059 153.646 153.872 158.428C155.021 160.451 156.305 162.393 157.717 164.242C159.311 164.617 161.186 164.993 161.561 164.242C161.937 163.68 161.186 162.742 159.592 160.398C156.498 155.615 155.935 153.74 155.747 152.614C155.56 151.489 155.091 148.957 155.747 148.77C156.404 148.582 157.435 150.27 161.561 156.553C165.406 162.367 165.125 161.898 165.406 162.367C170.001 168.931 169.532 171.369 173.189 173.995C174.401 174.779 175.689 175.439 177.034 175.964C220.076 191.999 250.646 193.406 250.646 193.406C255.241 193.593 261.899 193.781 270.057 193.406C270.807 194.906 277.465 209.441 272.027 214.599Z" fill="#F5AE9F"/>
<path d="M249.21 282C244.792 287.434 240.899 293.274 237.582 299.442C232.799 308.35 230.455 315.852 225.954 334.326C218.546 364.333 214.982 379.431 218.171 380.837C220.327 381.775 224.266 377.086 225.954 375.023C237.3 361.426 238.144 345.391 239.551 332.45C241.343 315.391 244.574 298.515 249.21 282Z" fill="#FFC7BB"/>
<path d="M251.023 123.732C250.648 125.232 249.523 127.295 248.585 127.201C247.647 127.107 246.71 124.482 247.085 122.231C247.46 119.981 249.148 117.824 250.179 118.011C251.211 118.199 251.68 121.293 251.023 123.732Z" fill="white"/>
<path d="M250.027 284.815C249.464 285.94 248.433 287.628 247.683 287.347C246.932 287.065 246.745 284.909 247.401 283.127C248.058 281.345 249.558 279.751 250.215 280.032C251.058 280.379 250.871 282.939 250.027 284.815Z" fill="white"/>
<path d="M243.295 297.165C243.108 297.727 242.545 298.384 242.264 298.29C241.982 298.196 241.889 297.165 242.17 296.415C242.451 295.664 243.108 294.914 243.483 295.008C243.858 295.102 243.67 296.321 243.295 297.165Z" fill="white"/>
<path d="M251.18 133.375C251.363 132.302 251.098 131.363 250.587 131.276C250.077 131.188 249.515 131.987 249.331 133.059C249.148 134.131 249.414 135.071 249.924 135.158C250.435 135.245 250.997 134.447 251.18 133.375Z" fill="white"/>
<path d="M332.222 604C331.926 605.01 331.926 606.084 332.222 607.095C332.562 608.193 333.254 609.149 334.192 609.814V608.689C334.192 606.532 334.098 605.407 333.441 604.656C333.096 604.339 332.677 604.114 332.222 604Z" fill="#1A1A1A"/>
<path d="M162.228 602C161.354 602.395 160.654 603.095 160.259 603.969C159.91 605.021 159.914 606.157 160.269 607.206C160.625 608.256 161.312 609.16 162.228 609.783V602Z" fill="#131616"/>
<path d="M166 162C166.791 163.208 167.451 164.497 167.969 165.845C169.095 168.658 168.813 169.783 169.938 171.659C170.884 173.237 172.205 174.557 173.783 175.503C177.347 177.754 181.379 177.848 181.566 177.473C181.66 177.285 180.535 177.004 177.722 175.503C174.627 173.909 173.127 173.159 171.908 171.659C170.97 170.44 171.064 169.971 169.938 167.814C168.856 165.73 167.534 163.779 166 162Z" fill="#FFC7BB"/>
<path d="M236.725 192.158C237.382 192.346 238.413 192.908 238.32 193.284C238.226 193.659 237.007 194.034 235.975 193.846C234.944 193.659 233.912 192.908 234.006 192.44C234.1 191.971 235.6 191.877 236.725 192.158Z" fill="white"/>
<path d="M232.952 192.039C233.234 192.133 233.515 192.32 233.515 192.414C233.515 192.508 233.046 192.695 232.671 192.601C232.296 192.508 231.921 192.226 232.015 192.133C232.108 192.039 232.577 191.945 232.952 192.039Z" fill="white"/>
<path d="M166 181.07C167.219 180.977 169.282 180.977 171.814 181.07C175.756 181.244 179.662 181.905 183.442 183.04C203.509 188.666 226.015 196.637 226.015 196.637C235.861 200.106 250.584 203.951 270.557 204.42C275.434 211.64 275.434 214.641 274.402 216.048C271.495 219.986 257.992 214.735 231.829 204.42C217.2 198.7 202.759 192.792 202.759 192.792C195.808 189.819 188.702 187.221 181.473 185.009C176.389 183.423 171.224 182.108 166 181.07Z" fill="#F76F81"/>
<path d="M202.814 424C199.383 427.695 196.158 431.577 193.156 435.628C180.028 452.976 167.556 476.607 171.869 480.17C172.713 480.827 173.932 480.545 175.714 480.17C181.903 478.857 185.654 473.137 187.342 470.512C195.688 457.383 202.533 425.688 202.814 424Z" fill="#FFC7BB"/>
<path d="M330.938 435C333.003 443.239 334.29 451.652 334.783 460.131C335.137 465.94 335.137 471.765 334.783 477.573C333.952 491.418 331.336 505.097 327 518.271C330.282 504.296 332.228 490.041 332.814 475.698C333.372 462.103 332.745 448.486 330.938 435Z" fill="#FFC7BB"/>
<path d="M330.615 284C328.271 299.004 326.114 310.913 324.801 318.321C322.176 332.762 318.143 353.861 320.957 376.085C321.801 382.65 323.301 389.964 326.771 390.527C329.209 390.902 331.647 387.995 332.585 386.963C341.587 376.085 333.71 308.475 330.615 284Z" fill="#FFC7BB"/>
<path d="M254.997 259C248.347 266.088 242.498 273.887 237.555 282.256C234.503 287.17 231.898 292.349 229.772 297.728C226.396 306.449 225.739 311.982 223.958 320.984C220.676 337.395 219.457 335.425 214.299 357.743C210.736 373.028 208.86 384.375 208.485 386.813C206.328 399.941 205.203 411.288 204.64 419.728C201.827 423.291 197.701 428.636 193.012 435.2C180.541 452.83 172.57 464.176 167.881 479.743C165.058 489.166 163.76 498.979 164.036 508.812C165.25 498.198 167.867 487.792 171.82 477.867C178.946 459.863 189.543 446.172 200.889 431.356C204.078 427.136 206.797 423.854 208.673 421.697C209.348 410.01 210.631 398.366 212.517 386.813C214.018 377.623 215.143 372.841 224.145 336.457C229.959 312.826 232.96 300.823 235.773 293.884C240.658 281.479 247.119 269.755 254.997 259Z" fill="white"/>
<path d="M257.43 258C264.557 270.284 271.59 282.569 278.717 294.759C271.655 306.048 265.176 317.691 259.306 329.643C243.083 363.026 234.925 379.624 232.205 391.627C231.267 395.659 227.704 402.036 220.577 414.883C220.202 415.539 219.452 416.946 218.608 416.852C217.201 416.665 216.826 411.601 216.639 407.194C215.138 411.602 215.138 416.383 216.639 420.791C217.08 422.078 217.679 423.306 218.42 424.448L180.911 454.455C183.31 460.556 185.058 466.892 186.125 473.36C190.992 502.946 180.161 527.458 174 538.955C183.015 522.157 192.048 505.371 201.101 488.598C205.602 480.252 210.103 471.813 214.698 463.467C215.542 462.291 216.206 460.995 216.667 459.622C217.399 457.079 217.399 454.382 216.667 451.839C217.98 441.524 219.293 431.209 220.512 420.894C226.701 407.859 232.14 397.263 235.984 389.949C249.517 364.639 264.385 340.067 280.527 316.336C287.747 305.552 293.842 296.832 297.968 291.205C284.531 279.943 270.934 268.971 257.43 258Z" fill="#F76F81"/>
<path d="M330.888 411C329.201 417.564 329.951 423.097 332.858 424.597C333.454 424.898 334.112 425.055 334.78 425.055C335.448 425.055 336.106 424.898 336.702 424.597C338.672 423.472 339.609 420.377 338.672 416.814C338.39 420.19 336.515 422.534 334.827 422.628C332.67 422.722 331.17 419.346 330.982 418.783C330.436 417.561 330.146 416.24 330.129 414.901C330.113 413.563 330.372 412.235 330.888 411Z" fill="#F76F81"/>
<path d="M308 290.542C314.841 284.454 321.322 277.972 327.411 271.131C334.42 263.184 340.904 254.789 346.822 246C355.768 261.389 361.062 278.627 362.295 296.384C362.78 305.465 362.119 314.57 360.326 323.485C359.39 328.722 358.106 333.892 356.481 338.958C356.603 338.495 356.696 338.025 356.762 337.551C356.856 336.801 359.95 319.171 358.45 304.074C357.137 290.571 350.761 266.002 341.008 265.345C335.288 264.97 330.412 272.847 325.536 280.818C315.408 297.135 312.689 315.983 312.032 315.796C311.981 315.745 311.948 315.679 311.938 315.608C310.532 307.328 309.219 298.888 308 290.542Z" fill="#F76F81"/>
<path d="M294 31.3607C294.375 29.4852 295.032 26.7658 295.969 23.5775C298.032 16.4507 299.158 12.9811 301.783 9.98033C304.889 6.78193 308.989 4.73219 313.411 4.16638C321.851 3.0411 328.134 7.91732 330.853 9.98033C332.916 11.5745 338.449 15.8881 340.512 23.5775C341.731 28.0786 340.699 33.0486 338.542 42.9886C336.573 52.1784 335.448 53.3974 334.698 60.4304C334.26 64.9523 334.26 69.5058 334.698 74.0276C335.542 83.6862 337.605 85.1866 338.542 85.6555C339.441 86.1186 340.438 86.3602 341.449 86.3602C342.461 86.3602 343.457 86.1186 344.356 85.6555C345.146 85.1475 345.818 84.476 346.326 83.6863C347.202 82.53 347.869 81.2286 348.295 79.8415C351.023 81.7396 353.063 84.4703 354.109 87.6247C356.359 94.2826 352.89 100.003 352.14 101.222C349.862 104.806 346.467 107.541 342.481 109.005C336.198 111.443 330.572 110.318 325.039 109.005C318.1 107.411 310.41 105.723 305.628 99.3464C301.502 93.8138 301.596 87.7185 301.783 79.9353C301.971 67.8385 305.815 52.0846 311.442 43.1761C313.23 40.1821 314.528 36.9213 315.287 33.5175C315.849 30.8918 316.787 26.8596 315.287 25.7343C313.786 24.609 310.035 26.1094 299.814 35.3929C297.845 33.9582 295.969 32.6454 294 31.3607Z" fill="#F3D5CE"/>
<path d="M290 34.7858V32.8447C290 32.0008 290.375 30.6879 291.969 29C293.993 29.3708 295.951 30.0342 297.783 30.9692C299.879 31.9943 301.833 33.2866 303.597 34.814C303.875 35.4168 304.019 36.0726 304.019 36.7363C304.019 37.4 303.875 38.0558 303.597 38.6587C303.182 39.519 302.488 40.2133 301.628 40.6279C297.689 38.7243 293.845 36.7551 290 34.7858Z" fill="white"/>
<path d="M255.018 58.5545C254.83 57.1479 256.143 55.0848 258.862 50.7713C260.933 47.1626 263.56 43.903 266.646 41.1126C268.99 39.0496 274.147 34.5485 282.118 33.3294C284.694 32.8902 287.326 32.8902 289.901 33.3294C295.172 34.3438 299.955 37.0819 303.498 41.1126C305.093 42.8943 309.406 47.7705 309.312 54.7097C309.342 57.431 308.663 60.1131 307.343 62.4929C299.466 75.5556 256.237 67.9318 255.018 58.5545Z" fill="#D3A499"/>
<path d="M257 54.6362C259.021 48.5203 262.886 43.1805 268.065 39.3512C271.066 37.0068 274.723 34.0999 280.256 33.2559C282.273 32.9147 284.334 32.9147 286.351 33.2559C290.495 34.0379 294.258 36.1835 297.041 39.3512C297.885 40.2889 303.418 46.3842 301.636 50.0413C300.23 52.8545 294.884 52.7608 291.977 52.7608C280.291 52.679 268.611 53.3053 257 54.6362Z" fill="#FFF8F7"/>
<path d="M295.72 39C297.693 42.5344 298.389 46.6408 297.689 50.6279C297.02 53.4823 295.705 56.1451 293.845 58.4111C292.71 59.8317 291.421 61.1212 290 62.2558C291.395 61.8493 292.7 61.181 293.845 60.2866C296.959 57.9398 299.042 54.4781 299.659 50.6279C299.863 48.5213 299.618 46.3953 298.939 44.3907C298.26 42.386 297.163 40.5486 295.72 39Z" fill="#936C70"/>
<path d="M265.174 56.4111C265.744 53.5221 267.071 50.8363 269.019 48.6279C271.769 45.4994 275.036 42.8667 278.677 40.8447C282.902 38.6551 287.528 37.3471 292.275 37C281.772 38.7817 276.146 42.9077 272.863 46.6587C268.831 51.4411 265.924 58.6617 265.08 58.2866C264.893 58.1928 265.08 57.1613 265.174 56.4111Z" fill="#D3A499"/>
<path d="M298.058 28.407C299.746 24.0934 298.621 19.5923 298.058 15.2787C297.495 10.9651 297.964 5.52628 302.372 3.36949C306.779 1.2127 311.561 3.27572 315.125 5.90137C316.974 7.27863 318.377 9.17038 319.157 11.3402C320.154 13.5303 321 15.7862 321.689 18.0919C323.189 23.5308 322.252 29.251 320.751 34.596C320.657 35.0649 321.314 35.2525 321.408 34.7836C322.814 29.8136 323.658 24.5623 322.627 19.4047C322.097 16.9414 321.279 14.5493 320.189 12.278C319.251 10.1212 318.313 7.96439 316.531 6.37024C313.343 3.55704 308.748 1.40025 304.435 2.15044C300.121 2.90062 297.683 6.37024 297.12 10.4963C296.37 16.4978 299.465 22.593 297.214 28.407C297.214 28.5945 297.87 28.7821 298.058 28.407Z" fill="#FFF8F7"/>
<path d="M317.314 45.2101C315.72 50.0863 313.376 54.7749 311.969 59.6512C310.563 64.5274 310.281 69.6849 310 74.7487C310 75.2175 310.656 75.2175 310.75 74.7487C311.031 69.5911 311.313 64.3398 312.813 59.3698C314.22 54.5874 316.47 50.0863 317.971 45.3038C318.158 45.0225 317.502 44.835 317.314 45.2101Z" fill="#FFF8F7"/>
<path d="M310.001 84.3644C309.983 86.988 310.298 89.6032 310.938 92.1475C311.574 94.124 312.666 95.923 314.127 97.3989C317.07 100.428 320.989 102.321 325.192 102.744C325.661 102.838 325.661 102.088 325.192 101.994C321.17 101.552 317.425 99.7289 314.596 96.8362C313.195 95.331 312.139 93.5391 311.501 91.5849C310.892 89.1959 310.608 86.7356 310.657 84.2706C310.657 83.8955 310.001 83.8955 310.001 84.3644Z" fill="#FFF8F7"/>
<path d="M318.021 86.5111C320.15 90.9585 323.648 94.6062 328.003 96.9185C332.357 99.2308 337.339 100.086 342.215 99.3581C345.028 98.983 348.123 98.0452 349.811 95.5133C350.092 95.1382 349.436 94.7632 349.248 95.1383C347.466 97.7639 343.997 98.5141 340.996 98.7954C337.826 99.0827 334.631 98.6993 331.619 97.6701C325.967 95.6583 321.324 91.5199 318.678 86.136C318.62 86.0675 318.54 86.0214 318.451 86.0058C318.363 85.9902 318.272 86.0061 318.194 86.0507C318.116 86.0952 318.056 86.1656 318.024 86.2497C317.993 86.3338 317.992 86.4263 318.021 86.5111Z" fill="#FFF8F7"/>
<path d="M327.372 37.2716C326.341 44.2108 327.56 51.2438 329.717 57.9017C331.592 63.8095 334.311 69.811 339.938 72.9993C340.313 73.1868 340.688 72.6242 340.313 72.4366C334.78 69.2483 332.155 63.1531 330.279 57.3391C328.31 50.9625 327.091 44.2108 328.029 37.4591C328.122 36.9903 327.466 36.8027 327.372 37.2716Z" fill="#FFF8F7"/>
<path d="M353.471 89.4602C354.408 84.8653 355.627 79.4264 353.471 74.9253C353.317 74.5175 353.076 74.1484 352.764 73.8442C352.452 73.54 352.077 73.3081 351.665 73.165C351.254 73.0218 350.816 72.9709 350.382 73.0158C349.949 73.0608 349.53 73.2004 349.157 73.4249C348.824 73.6678 348.548 73.9809 348.349 74.3423C348.15 74.7036 348.033 75.1042 348.006 75.5158C347.979 75.9274 348.043 76.3399 348.193 76.724C348.344 77.1081 348.577 77.4544 348.876 77.7385C349.157 78.0198 349.72 77.551 349.344 77.2696C349.029 76.9776 348.81 76.5961 348.718 76.1762C348.625 75.7564 348.663 75.3183 348.826 74.9205C348.989 74.5227 349.27 74.1843 349.631 73.9505C349.991 73.7168 350.415 73.5988 350.845 73.6125C352.814 73.7062 353.377 76.4257 353.658 77.926C354.314 81.677 353.564 85.5217 352.72 89.1789C352.627 89.7415 353.377 89.929 353.471 89.4602Z" fill="#FFF8F7"/>
<path d="M265.75 44.5134C266.219 40.7624 266.688 37.0115 268.188 33.5419C269.526 30.5947 271.402 27.9232 273.721 25.6649C276.027 23.4045 278.538 21.364 281.223 19.5696C283.972 17.4946 286.963 15.7626 290.131 14.4121C293.695 13.0993 297.446 13.2868 301.197 13.4743C304.949 13.6618 308.711 13.5678 312.449 13.193C316.019 12.8039 319.559 12.1774 323.046 11.3176C325.765 10.6611 329.141 10.0047 331.298 8.12926C333.455 6.25379 333.08 3.25304 330.923 1.47135C328.203 -0.872988 324.359 0.0647458 321.264 1.00248C320.795 1.09625 320.983 1.84644 321.452 1.65889C324.734 0.72116 329.047 -0.310348 331.392 2.97172C333.736 6.25379 329.797 8.59813 327.078 9.44209C320.345 11.5959 313.329 12.7337 306.26 12.8179C302.697 12.9117 299.134 12.4428 295.57 12.6304C292.45 12.8073 289.408 13.6719 286.662 15.1623C283.925 16.7053 281.293 18.4283 278.785 20.3198C276.544 21.9564 274.443 23.7756 272.502 25.7587C270.32 28.0151 268.572 30.6533 267.344 33.5419C265.938 37.0115 265.469 40.7624 265 44.5134C265 44.6128 265.04 44.7082 265.11 44.7786C265.18 44.8489 265.276 44.8884 265.375 44.8884C265.475 44.8884 265.57 44.8489 265.64 44.7786C265.711 44.7082 265.75 44.6128 265.75 44.5134Z" fill="#FFF8F7"/>
<path d="M257.408 18.4948C255.71 15.8458 253.764 13.3651 251.594 11.0867C251.312 10.8054 250.75 11.2743 251.125 11.5556C253.264 13.8031 255.179 16.2526 256.845 18.8699C257.126 19.245 257.689 18.9637 257.408 18.4948Z" fill="#FFF8F7"/>
<path d="M273.905 22.991C273.35 22.1592 272.938 21.2399 272.686 20.2716C272.593 19.8027 271.842 19.9903 272.03 20.4591C272.313 21.4614 272.757 22.4114 273.343 23.2723C273.53 23.7412 274.093 23.3661 273.905 22.991Z" fill="#FFF8F7"/>
<path d="M332.125 18.5556C333.719 19.8684 334.094 22.0252 334.094 23.9945C334.202 26.544 333.981 29.0969 333.438 31.5901C333.344 32.059 334 32.2465 334.094 31.7777C334.638 29.0943 334.859 26.3553 334.751 23.6194C334.657 21.5564 334.188 19.3996 332.594 18.0867C332.312 17.8054 331.75 18.2743 332.125 18.5556Z" fill="#FFF8F7"/>
<path d="M262.722 93.0959C263.004 94.0337 263.848 94.2212 264.692 95.0652C266.286 96.5656 265.723 98.0659 266.661 98.9099C268.724 101.067 275.851 97.222 276.319 96.9407C281.946 93.8461 281.946 91.7831 287.947 87.282C292.917 83.5311 294.324 83.9999 299.575 79.4988C302.388 77.1545 304.451 74.9977 305.389 71.7156C306.064 69.8364 306.064 67.7809 305.389 65.9016C305.108 65.2452 303.983 62.432 301.545 62.0569C299.388 61.6818 296.95 63.1822 295.731 65.9016C293.142 65.6622 290.536 65.6622 287.947 65.9016C284.666 66.2063 281.427 66.8666 278.289 67.8709C272.556 69.4953 266.732 70.7791 260.847 71.7156V73.6848C260.847 77.1545 261.034 77.1545 260.847 77.5296C259.909 79.8739 256.908 80.0614 257.002 81.3743C257.002 82.0307 257.752 82.0307 258.971 83.3435C259.628 83.9999 261.316 85.7816 260.941 87.1882C260.566 88.4073 258.878 88.501 258.971 89.1575C259.065 90.0014 262.253 89.6263 262.816 91.1267C263.004 91.8769 262.441 92.1582 262.722 93.0959Z" fill="#F5AE9F"/>
<path d="M257.043 81.6173C257.324 82.2737 259.668 81.8049 260.887 81.6173C264.308 80.9149 267.578 79.6133 270.546 77.7726C274.766 75.147 274.391 74.3968 278.329 71.9587C282.924 69.1455 286.206 68.489 286.113 68.1139C286.019 67.7389 281.143 68.114 260.981 71.9587V77.7726C258.824 79.1792 256.668 80.8671 257.043 81.6173Z" fill="#D3A499"/>
<path d="M299.814 68L294 73.814C298.501 75.5957 299.72 75.877 299.814 75.7832C299.908 75.6894 298.407 75.1268 297.845 73.814C297.095 72.126 298.314 69.8755 299.814 68Z" fill="#F76F81"/>
<path d="M276.814 83.7524C280.025 83.7524 282.628 81.5693 282.628 78.8762C282.628 76.1832 280.025 74 276.814 74C273.603 74 271 76.1832 271 78.8762C271 81.5693 273.603 83.7524 276.814 83.7524Z" fill="#F76F81"/>
<path d="M259.317 87.3958C259.111 87.6828 259 88.0272 259 88.3805C259 88.7338 259.111 89.0781 259.317 89.3651C260.161 90.7717 263.255 90.8655 267.1 89.3651C262.318 86.927 260.067 86.58 259.317 87.3958Z" fill="#D3A499"/>
<path d="M261 91.7194C260.998 92.0693 261.105 92.411 261.307 92.6968C261.509 92.9826 261.795 93.1983 262.125 93.3136C263.626 93.97 266.251 92.3758 268.502 89C263.251 89.6564 261.188 90.6879 261 91.7194Z" fill="#F76F81"/>
<path d="M263 71.9692C263.17 72.4184 263.433 72.8262 263.773 73.1657C264.112 73.5053 264.52 73.7687 264.969 73.9385C265.61 74.1383 266.297 74.1383 266.938 73.9385C267.388 73.7687 267.795 73.5053 268.135 73.1657C268.475 72.8262 268.738 72.4184 268.908 71.9692H274.722L276.691 70C272.002 70.6845 267.501 71.3128 263 71.9692Z" fill="#936C70"/>
<path d="M258.902 83.8132C259.543 84.013 260.23 84.013 260.871 83.8132C261.902 83.4381 263.028 82.5004 262.84 81.844C262.465 80.7187 257.307 80.7187 257.026 81.844C256.839 82.3128 257.683 83.0911 258.902 83.8132Z" fill="#F76F81"/>
<path d="M240 69.4419C247.019 70.7592 254.145 71.4185 261.287 71.4111C266.163 71.4111 271.133 71.036 296.17 67.5664C301.89 66.7224 306.579 66.066 309.767 65.5971V57.814C303.973 58.487 298.12 58.487 292.326 57.814C284.917 56.97 281.448 55.4696 272.914 53.9692C266.497 52.8688 260.011 52.2108 253.503 52V59.8113C249.002 62.9715 244.501 66.2536 240 69.4419Z" fill="white"/>
<path d="M317.525 189.72C314.149 193.846 309.835 200.692 311.711 207.162C312.461 209.881 313.868 210.819 319.494 216.821C324.708 222.447 325.524 223.741 327.934 226.601C329.959 228.992 331.563 230.69 333.082 232.293C336.167 235.547 338.399 237.863 340.715 240.152C343.95 243.368 346.426 245.656 346.679 245.89C355.025 253.683 371.219 298.019 374.614 306.299C385.323 332.462 415.405 358.137 443.697 359.572C466.249 360.725 497.795 346.988 517.778 349.548C518.894 349.688 524.042 350.41 531.15 350.851C536.701 351.189 543.266 351.339 550.645 351.067C490.434 411.494 440.462 425.767 404.997 426.92C369.531 428.073 352.83 415.995 319.016 427.933C275.045 443.471 262.142 478.458 228.056 477.755C207.679 477.333 191.353 464.401 181 453.964C184.751 447.738 188.999 441.192 193.847 434.459C197.598 429.283 201.293 424.473 204.94 420.028C208.316 394.221 211.279 374.866 212.845 367.252C213.352 364.776 213.886 362.395 213.886 362.395C214.965 357.546 216.268 352.173 217.881 346.387C220.15 338.173 220.882 336.832 222.654 329.818C225.317 319.278 225.074 316.793 227.108 308.709C228.93 301.469 231.384 294.403 234.441 287.591C237.733 280.54 244.325 269.062 257.641 257.518C258.016 255.549 258.579 252.642 259.141 249.079C260.829 238.295 260.736 234.544 261.486 228.542C263.924 210.538 270.3 207.256 269.269 193.659C269.016 190.37 268.354 187.125 267.3 184L317.525 189.72Z" fill="white"/>
<path d="M261 228.418C265.97 224.01 283.787 208.913 295.884 207.131C297.158 206.944 298.454 206.944 299.728 207.131C308.421 208.369 315.173 224.507 315.201 224.573C320.209 239.577 338.644 254.018 348.959 264.295C355.82 271.161 361.804 278.85 366.776 287.186C363.251 277.921 359.903 270.372 357.343 264.924C353.676 257.112 351.782 253.127 348.838 248.917C343.568 241.415 342.358 243.037 332.54 232.262C325.563 224.601 320.752 217.859 313.129 210.976C308.296 206.685 303.121 202.796 297.656 199.348C285.747 191.471 279.089 187.251 274.4 189.689C272.9 190.439 271.493 194.097 268.586 201.317C266.198 206.971 264.254 212.803 262.772 218.759C262.032 222.51 261.375 225.914 261 228.418Z" fill="#F7F5F5"/>
<path d="M267 184C268.691 188.973 269.36 194.235 268.969 199.473C269.719 197.972 271.407 194.971 274.783 193.659C275.815 193.284 278.253 192.44 282.566 193.659C293.163 196.659 313.699 211.663 315.481 213.07C313.435 210.928 312.094 208.212 311.636 205.287C311.431 204.013 311.431 202.715 311.636 201.442C312.293 196.003 315.575 191.877 317.45 189.814C314.303 190.786 311.068 191.445 307.791 191.783C302.54 192.252 297.758 191.408 288.38 189.814C284.161 189.064 281.91 188.689 278.722 187.845C274.731 186.832 270.815 185.547 267 184Z" fill="#D9B7BD"/>
<path d="M315.952 412.463C315.389 412.313 319.703 403.038 321.512 382.155C325.882 330.383 306.977 293.286 315.014 289.319C318.765 287.444 325.742 294.421 326.267 294.946C355.627 325.009 317.705 412.913 315.952 412.463Z" fill="#F7F5F5"/>
<path d="M350.445 343C350.81 342.953 350.51 349.339 354.468 361.755C364.295 392.616 384.025 409.486 380.349 413.687C378.605 415.675 372.95 413.312 372.528 413.133C348.438 402.837 349.329 343.16 350.445 343Z" fill="#F7F5F5"/>
<path d="M245.396 312C239.703 326.86 235.632 342.29 233.252 358.024C229.501 382.958 232.033 396.602 224.663 418.714C221.319 428.691 216.728 438.206 211 447.034C218.075 440.438 224.051 432.755 228.704 424.275C236.159 410.584 238.007 398.459 240.839 368.639C242.827 347.793 244.29 328.804 245.396 312Z" fill="#F7F5F5"/>
<path d="M396 352C399.751 358.255 408.603 371.017 424.817 377.675C447.941 387.156 476.392 380.263 497.36 360.299C492.221 363.731 467.202 379.644 435.179 372.949C420.415 369.772 406.841 362.513 396 352Z" fill="#F7F5F5"/>
<path d="M324 426.301C328.185 429.014 331.861 432.442 334.859 436.428C341.001 444.615 342.473 452.932 343.711 459.947C344.888 466.631 345.188 473.44 344.602 480.202C347.873 461.205 347.235 441.741 342.727 423C340.101 423.159 337.231 423.459 334.165 423.938C330.73 424.507 327.334 425.297 324 426.301Z" fill="#F76F81"/>
<path fill-rule="evenodd" clip-rule="evenodd" d="M256.47 54.174C256.83 54.2141 257.171 54.3396 257.463 54.5398C257.755 54.74 257.99 55.009 258.149 55.3243C258.415 55.8657 258.899 55.6308 258.792 56.2423L258.67 56.9369C258.637 57.0994 258.541 57.2459 258.402 57.3445C258.264 57.4432 258.094 57.4859 257.93 57.4633L257.841 57.4528C257.786 57.4473 257.737 57.4206 257.704 57.3783C257.671 57.336 257.657 57.2817 257.665 57.2272L257.869 56.066C257.9 55.8861 257.84 55.6727 257.759 55.5065C257.63 55.2512 257.44 55.0332 257.204 54.8711C256.967 54.709 256.691 54.6074 256.4 54.575C255.988 54.5291 255.566 54.6165 255.196 54.8241C254.901 54.9872 254.89 54.5511 255.007 54.4694C255.457 54.2169 255.971 54.1131 256.47 54.174Z" fill="#FF5134"/>
<path fill-rule="evenodd" clip-rule="evenodd" d="M255.219 55.2245C254.923 55.4387 254.715 55.7528 254.64 56.1016C254.625 56.1532 254.613 56.2053 254.604 56.2577C254.596 56.3058 254.592 56.3543 254.592 56.4026C254.549 56.9797 255.041 58.2373 255.397 58.9041C255.512 59.1196 255.645 59.1848 255.879 58.9583C256.451 58.4029 257.351 57.3106 257.508 56.7481C257.525 56.7016 257.538 56.6541 257.547 56.606C257.556 56.5533 257.562 56.5003 257.566 56.4472C257.613 56.0948 257.521 55.7455 257.309 55.4719C256.84 54.8659 255.878 54.7494 255.219 55.2245ZM256.245 55.4661C256.407 55.4855 256.557 55.552 256.677 55.6573C256.796 55.7626 256.879 55.9021 256.915 56.058C256.952 56.214 256.94 56.3795 256.881 56.5338C256.822 56.6881 256.719 56.8243 256.585 56.9252C256.496 56.994 256.394 57.0448 256.287 57.0744C256.179 57.1041 256.067 57.112 255.959 57.0976C255.85 57.0866 255.747 57.0533 255.654 56.9999C255.562 56.9466 255.483 56.8743 255.423 56.7876C255.359 56.7031 255.313 56.6061 255.289 56.5021C255.265 56.3981 255.262 56.2893 255.281 56.182C255.299 56.0746 255.34 55.9709 255.399 55.8768C255.458 55.7827 255.535 55.7001 255.625 55.6339C255.713 55.5662 255.814 55.5165 255.921 55.4876C256.027 55.4588 256.138 55.4514 256.245 55.4661Z" fill="#FF5134"/>
<g filter="url(#filter2_f)">
<path d="M144.523 299.213C128.845 321.803 131.114 365 131.114 365C131.114 365 137.936 326.517 154.884 304.529C176.117 276.983 214 262 214 262C214 262 165.58 268.876 144.523 299.213Z" fill="#FF5134"/>
</g>
<path d="M132.642 290.477C114.507 314.441 117.132 360.267 117.132 360.267C117.132 360.267 125.022 319.443 144.627 296.117C169.186 266.894 213.005 251 213.005 251C213.005 251 156.998 258.294 132.642 290.477Z" fill="#FF5134"/>
<defs>
<filter id="filter0_f" x="0" y="168" width="654.5" height="187.414" filterUnits="userSpaceOnUse" color-interpolation-filters="sRGB">
<feFlood flood-opacity="0" result="BackgroundImageFix"/>
<feBlend mode="normal" in="SourceGraphic" in2="BackgroundImageFix" result="shape"/>
<feGaussianBlur stdDeviation="14" result="effect1_foregroundBlur"/>
</filter>
<filter id="filter1_f" x="455.76" y="129.798" width="111.748" height="171.182" filterUnits="userSpaceOnUse" color-interpolation-filters="sRGB">
<feFlood flood-opacity="0" result="BackgroundImageFix"/>
<feBlend mode="normal" in="SourceGraphic" in2="BackgroundImageFix" result="shape"/>
<feGaussianBlur stdDeviation="14" result="effect1_foregroundBlur"/>
</filter>
<filter id="filter2_f" x="103" y="234" width="139" height="159" filterUnits="userSpaceOnUse" color-interpolation-filters="sRGB">
<feFlood flood-opacity="0" result="BackgroundImageFix"/>
<feBlend mode="normal" in="SourceGraphic" in2="BackgroundImageFix" result="shape"/>
<feGaussianBlur stdDeviation="14" result="effect1_foregroundBlur"/>
</filter>
</defs>
</svg>
