<svg width="20" height="17" viewBox="0 0 20 17" fill="none" xmlns="http://www.w3.org/2000/svg">
<path d="M17.633 4.25754C17.646 4.43254 17.646 4.60654 17.646 4.78054C17.646 10.1055 13.593 16.2415 6.186 16.2415C3.904 16.2415 1.784 15.5805 0 14.4325C0.324 14.4695 0.636 14.4825 0.973 14.4825C2.78599 14.4869 4.54765 13.8807 5.974 12.7615C5.13342 12.7463 4.31858 12.469 3.64324 11.9683C2.9679 11.4676 2.46578 10.7684 2.207 9.96854C2.456 10.0055 2.706 10.0305 2.968 10.0305C3.329 10.0305 3.692 9.98054 4.029 9.89354C3.11676 9.70935 2.29647 9.21489 1.70762 8.49423C1.11876 7.77356 0.797693 6.87119 0.799 5.94054V5.89054C1.336 6.18954 1.959 6.37654 2.619 6.40154C2.06609 6.03413 1.61272 5.53556 1.29934 4.95033C0.98596 4.3651 0.822313 3.7114 0.823 3.04754C0.823 2.29954 1.022 1.61354 1.371 1.01554C2.38314 2.26056 3.6455 3.2791 5.07634 4.0052C6.50717 4.7313 8.07456 5.14876 9.677 5.23054C9.615 4.93054 9.577 4.61954 9.577 4.30754C9.57674 3.7785 9.68075 3.2546 9.88308 2.76578C10.0854 2.27696 10.3821 1.83282 10.7562 1.45873C11.1303 1.08464 11.5744 0.787952 12.0632 0.585619C12.5521 0.383287 13.076 0.279279 13.605 0.279542C14.765 0.279542 15.812 0.765541 16.548 1.55154C17.4498 1.37716 18.3145 1.04796 19.104 0.578541C18.8034 1.50936 18.1738 2.29865 17.333 2.79854C18.1328 2.70732 18.9144 2.49699 19.652 2.17454C19.1011 2.97764 18.4185 3.68189 17.633 4.25754Z" fill="#1E2843"/>
</svg>
