<svg width="33" height="33" viewBox="0 0 33 33" fill="none" xmlns="http://www.w3.org/2000/svg">
<path d="M16 32C24.8366 32 32 24.8366 32 16C32 7.16344 24.8366 0 16 0C7.16344 0 0 7.16344 0 16C0 24.8366 7.16344 32 16 32Z" fill="#F0F0F0"/>
<path d="M3.75631 7C2.4995 8.63519 1.55181 10.5199 1 12.5673H9.32362L3.75631 7Z" fill="#0052B4"/>
<path d="M32.3235 12.5673C31.7717 10.5199 30.8239 8.63519 29.5672 7L24 12.5673H32.3235Z" fill="#0052B4"/>
<path d="M1 21C1.55187 23.0474 2.49956 24.9321 3.75631 26.5672L9.32344 21H1Z" fill="#0052B4"/>
<path d="M26.5672 3.75637C24.9321 2.49956 23.0474 1.55187 21 1V9.32356L26.5672 3.75637Z" fill="#0052B4"/>
<path d="M7 29.5671C8.63519 30.8239 10.5199 31.7716 12.5672 32.3235V24L7 29.5671Z" fill="#0052B4"/>
<path d="M12.5672 1C10.5198 1.55187 8.63513 2.49956 7 3.75631L12.5672 9.3235V1Z" fill="#0052B4"/>
<path d="M21 32.3235C23.0474 31.7716 24.9321 30.8239 26.5672 29.5672L21 24V32.3235Z" fill="#0052B4"/>
<path d="M24 21L29.5672 26.5672C30.8239 24.9321 31.7717 23.0474 32.3235 21H24Z" fill="#0052B4"/>
<path d="M31.8646 13.9131H18.0871H18.087V0.135438C17.4038 0.0465 16.7073 0 16 0C15.2926 0 14.5962 0.0465 13.9131 0.135438V13.9129V13.913H0.135438C0.0465 14.5962 0 15.2927 0 16C0 16.7074 0.0465 17.4038 0.135438 18.0869H13.9129H13.913V31.8646C14.5962 31.9535 15.2926 32 16 32C16.7073 32 17.4038 31.9536 18.0869 31.8646V18.0871V18.087H31.8646C31.9535 17.4038 32 16.7074 32 16C32 15.2927 31.9535 14.5962 31.8646 13.9131Z" fill="#D80027"/>
<path d="M20 20.0001L27.1398 27.1398C27.4681 26.8116 27.7814 26.4684 28.0802 26.1126L21.9676 20H20V20.0001Z" fill="#D80027"/>
<path d="M12.1398 20H12.1397L5 27.1397C5.32825 27.4681 5.67144 27.7813 6.02719 28.0802L12.1398 21.9674V20Z" fill="#D80027"/>
<path d="M12.0802 12.1399V12.1398L4.9405 5C4.61213 5.32825 4.29887 5.67144 4 6.02719L10.1127 12.1399H12.0802V12.1399Z" fill="#D80027"/>
<path d="M20 12.0803L27.1398 4.94044C26.8116 4.61206 26.4684 4.29881 26.1126 4L20 10.1127V12.0803Z" fill="#D80027"/>
</svg>
