<svg width="120" height="41" viewBox="0 0 120 41" fill="none" xmlns="http://www.w3.org/2000/svg">
<path d="M110.468 0.279541H9.53177C9.23077 0.279541 8.82943 0.279541 8.42809 0.279541C8.12709 0.279541 7.82609 0.279541 7.52508 0.279541C6.82274 0.279541 6.22074 0.379541 5.51839 0.479541C4.91639 0.579541 4.21405 0.779541 3.61204 1.07954C3.01003 1.37954 2.50836 1.77954 2.00669 2.27954C1.50502 2.77954 1.10368 3.27954 0.802676 3.87954C0.501672 4.47954 0.301003 5.17954 0.200669 5.77954C0.100334 6.47954 0 7.17954 0 7.77954C0 8.07954 0 8.37954 0 8.67954V31.7795C0 32.0795 0 32.3795 0 32.6795C0 33.3795 0.100334 33.9795 0.200669 34.6795C0.301003 35.3795 0.501672 35.9795 0.802676 36.5795C1.10368 37.2795 1.50502 37.7795 2.00669 38.2795C2.50836 38.7795 3.01003 39.1795 3.61204 39.4795C4.21405 39.7795 4.81605 39.9795 5.51839 40.0795C6.22074 40.1795 6.82274 40.2795 7.52508 40.2795C7.82609 40.2795 8.12709 40.2795 8.42809 40.2795C8.82943 40.2795 9.13043 40.2795 9.53177 40.2795H110.468C110.87 40.2795 111.171 40.2795 111.572 40.2795C111.873 40.2795 112.174 40.2795 112.475 40.2795C113.177 40.2795 113.779 40.1795 114.482 40.0795C115.184 39.9795 115.786 39.7795 116.388 39.4795C116.99 39.1795 117.492 38.7795 117.993 38.2795C118.495 37.7795 118.896 37.2795 119.197 36.6795C119.498 36.0795 119.699 35.4795 119.799 34.7795C119.9 34.0795 120 33.4795 120 32.7795C120 32.4795 120 32.1795 120 31.8795C120 31.4795 120 31.1795 120 30.7795V9.77954C120 9.37954 120 9.07954 120 8.67954C120 8.37954 120 8.07954 120 7.77954C120 7.07954 119.9 6.47954 119.799 5.77954C119.699 5.07954 119.498 4.47954 119.197 3.87954C118.595 2.67954 117.592 1.67954 116.388 1.07954C115.786 0.779541 115.184 0.579541 114.482 0.479541C113.779 0.379541 113.177 0.279541 112.475 0.279541C112.174 0.279541 111.873 0.279541 111.572 0.279541C111.271 0.279541 110.87 0.279541 110.468 0.279541Z" fill="#A6A6A6"/>
<path d="M8.62542 39.4795C8.32441 39.4795 8.02341 39.4795 7.72241 39.4795C7.1204 39.4795 6.41806 39.3795 5.81605 39.2795C5.21405 39.1795 4.71237 38.9795 4.11037 38.7795C3.6087 38.4795 3.10702 38.1795 2.70569 37.7795C2.30435 37.3795 1.90301 36.8795 1.70234 36.3795C1.40134 35.8795 1.301 35.2795 1.20067 34.6795C1.10033 34.0795 1 33.4795 1 32.7795C1 32.5795 1 31.8795 1 31.8795V8.77954C1 8.77954 1 8.07954 1 7.87954C1 7.27954 1.10033 6.57954 1.20067 5.97954C1.301 5.47954 1.50167 4.87954 1.80268 4.37954C2.10368 3.87954 2.40468 3.37954 2.80602 2.97954C3.20736 2.57954 3.70903 2.27954 4.2107 1.97954C4.71237 1.67954 5.31438 1.57954 5.91639 1.47954C6.51839 1.37954 7.1204 1.27954 7.82274 1.27954H8.72575H111.87H112.773C113.375 1.27954 113.977 1.37954 114.679 1.47954C115.281 1.57954 115.783 1.77954 116.385 1.97954C117.388 2.47954 118.291 3.37954 118.793 4.37954C119.094 4.87954 119.194 5.47954 119.294 5.97954C119.395 6.57954 119.495 7.27954 119.495 7.87954C119.495 8.17954 119.495 8.47954 119.495 8.77954C119.495 9.17954 119.495 9.47954 119.495 9.87954V30.7795C119.495 31.1795 119.495 31.4795 119.495 31.8795C119.495 32.1795 119.495 32.4795 119.495 32.7795C119.495 33.3795 119.395 33.9795 119.294 34.6795C119.194 35.2795 118.993 35.7795 118.793 36.3795C118.492 36.8795 118.191 37.3795 117.789 37.7795C117.388 38.1795 116.886 38.5795 116.385 38.7795C115.883 39.0795 115.281 39.2795 114.679 39.2795C114.077 39.3795 113.475 39.4795 112.773 39.4795C112.472 39.4795 112.171 39.4795 111.87 39.4795H110.766H8.62542Z" fill="black"/>
<path d="M24.8533 20.702C24.8533 19.002 25.7563 17.402 27.2613 16.502C26.3583 15.202 24.8533 14.402 23.2479 14.302C21.5422 14.102 19.9369 15.302 19.0339 15.302C18.1308 15.302 16.8265 14.302 15.4218 14.302C13.5155 14.402 11.8098 15.402 10.9068 17.002C9.00041 20.302 10.4051 25.302 12.3114 28.002C13.2145 29.302 14.3181 30.802 15.7228 30.802C17.1275 30.702 17.6292 29.902 19.3349 29.902C21.0405 29.902 21.4419 30.802 22.9469 30.802C24.4519 30.802 25.3549 29.502 26.2579 28.102C26.9603 27.202 27.462 26.102 27.763 25.002C25.9569 24.402 24.8533 22.602 24.8533 20.702Z" fill="white"/>
<path d="M22.2259 12.7795C23.0285 11.7795 23.4299 10.5795 23.3295 9.27954C22.1255 9.37954 20.9215 9.97954 20.1188 10.9795C19.3162 11.8795 18.9148 13.0795 19.0152 14.3795C20.3195 14.3795 21.4232 13.7795 22.2259 12.7795Z" fill="white"/>
<path d="M42.8261 27.2795H38.1104L37.0067 30.6795H35L39.5151 18.2795H41.5217L46.0368 30.6795H44.0301L42.8261 27.2795ZM38.612 25.7795H42.4248L40.5184 20.2795H40.4181L38.612 25.7795Z" fill="white"/>
<path d="M55.5284 25.8833C55.5284 28.6833 54.0234 30.4833 51.7157 30.4833C50.5117 30.5833 49.408 29.8833 48.9064 28.8833V33.3833H47V21.3833H48.806V22.8833C49.408 21.8833 50.5117 21.2833 51.7157 21.2833C53.9231 21.1833 55.5284 23.0833 55.5284 25.8833ZM53.5217 25.8833C53.5217 24.0833 52.6187 22.8833 51.1137 22.8833C49.709 22.8833 48.7057 24.0833 48.7057 25.8833C48.7057 27.6833 49.709 28.8833 51.1137 28.8833C52.6187 28.8833 53.5217 27.6833 53.5217 25.8833Z" fill="white"/>
<path d="M65.5284 25.8833C65.5284 28.6833 64.0234 30.4833 61.7157 30.4833C60.5117 30.5833 59.408 29.8833 58.9064 28.8833V33.3833H57V21.3833H58.806V22.8833C59.408 21.8833 60.5117 21.2833 61.7157 21.2833C64.0234 21.1833 65.5284 23.0833 65.5284 25.8833ZM63.6221 25.8833C63.6221 24.0833 62.7191 22.8833 61.214 22.8833C59.8094 22.8833 58.806 24.0833 58.806 25.8833C58.806 27.6833 59.8094 28.8833 61.214 28.8833C62.7191 28.8833 63.6221 27.6833 63.6221 25.8833Z" fill="white"/>
<path d="M72.7057 27.3795C72.806 28.5795 74.01 29.3795 75.7157 29.3795C77.3211 29.3795 78.4248 28.5795 78.4248 27.4795C78.4248 26.4795 77.7224 25.9795 76.1171 25.5795L74.5117 25.1795C72.204 24.5795 71.2007 23.5795 71.2007 21.8795C71.2007 19.7795 73.107 18.2795 75.7157 18.2795C78.3244 18.2795 80.1304 19.7795 80.2308 21.8795H78.3244C78.2241 20.6795 77.2207 19.8795 75.7157 19.8795C74.2107 19.8795 73.2074 20.6795 73.2074 21.7795C73.2074 22.6795 73.9097 23.1795 75.5151 23.5795L76.9197 23.8795C79.4281 24.4795 80.5318 25.4795 80.5318 27.2795C80.5318 29.5795 78.6254 31.0795 75.7157 31.0795C72.9064 31.0795 71.1003 29.6795 71 27.3795H72.7057Z" fill="white"/>
<path d="M84.1104 19.2795V21.3795H85.8161V22.8795H84.1104V27.8795C84.1104 28.6795 84.4114 28.9795 85.2141 28.9795C85.4147 28.9795 85.6154 28.9795 85.8161 28.9795V30.4795C85.5151 30.5795 85.1137 30.5795 84.8127 30.5795C83.0067 30.5795 82.3044 29.8795 82.3044 28.1795V22.9795H81V21.4795H82.3044V19.3795H84.1104V19.2795Z" fill="white"/>
<path d="M87 26.8795C87 24.0795 88.7057 22.2795 91.3144 22.2795C93.9231 22.2795 95.6288 24.0795 95.6288 26.8795C95.6288 29.7795 93.9231 31.4795 91.3144 31.4795C88.6054 31.4795 87 29.6795 87 26.8795ZM93.7224 26.8795C93.7224 24.8795 92.8194 23.7795 91.3144 23.7795C89.8094 23.7795 88.9064 24.8795 88.9064 26.8795C88.9064 28.8795 89.8094 29.9795 91.3144 29.9795C92.8194 29.9795 93.7224 28.7795 93.7224 26.8795Z" fill="white"/>
<path d="M97 21.289H98.806V22.889C99.0067 21.889 100.01 21.189 101.013 21.289C101.214 21.289 101.415 21.289 101.615 21.389V23.089C101.314 22.989 101.013 22.989 100.813 22.989C99.8094 22.989 98.9064 23.789 98.9064 24.789C98.9064 24.889 98.9064 24.989 98.9064 25.089V30.489H97V21.289Z" fill="white"/>
<path d="M110.227 27.7795C110.027 29.3795 108.321 30.5795 106.314 30.5795C103.706 30.5795 102 28.7795 102 25.9795C102 23.1795 103.605 21.2795 106.214 21.2795C108.722 21.2795 110.328 22.9795 110.328 25.7795V26.3795H103.906V26.4795C103.806 27.7795 104.709 28.8795 106.013 29.0795C106.114 29.0795 106.214 29.0795 106.314 29.0795C107.217 29.1795 108.12 28.6795 108.421 27.7795H110.227ZM103.906 25.0795H108.421C108.522 23.8795 107.518 22.8795 106.314 22.7795C106.214 22.7795 106.214 22.7795 106.114 22.7795C104.91 22.7795 103.906 23.7795 103.906 25.0795Z" fill="white"/>
<path d="M38.2074 8.37954C39.7124 8.27954 40.9164 9.37954 41.0167 10.7795C41.0167 10.9795 41.0167 11.0795 41.0167 11.2795C41.0167 13.1795 40.0134 14.2795 38.2074 14.2795H36V8.27954H38.2074V8.37954ZM37.0033 13.5795H38.107C39.1104 13.6795 40.0134 12.8795 40.1137 11.7795C40.1137 11.6795 40.1137 11.4795 40.1137 11.3795C40.214 10.3795 39.5117 9.37954 38.5084 9.27954C38.408 9.27954 38.3077 9.27954 38.107 9.27954H37.0033V13.5795Z" fill="white"/>
<path d="M42.0084 12.588C41.9081 11.388 42.7108 10.388 43.9148 10.288C45.1188 10.188 46.1222 10.988 46.2225 12.188C46.2225 12.288 46.2225 12.488 46.2225 12.588C46.3228 13.788 45.5202 14.788 44.3161 14.888C43.1121 14.988 42.1088 14.188 42.0084 12.988C42.0084 12.888 42.0084 12.788 42.0084 12.588ZM45.3195 12.588C45.3195 11.588 44.9181 11.088 44.1155 11.088C43.3128 11.088 42.9115 11.688 42.9115 12.588C42.9115 13.588 43.3128 14.188 44.1155 14.188C44.9181 14.188 45.3195 13.588 45.3195 12.588Z" fill="white"/>
<path d="M51.9164 14.7795H51.0134L50.1104 11.4795H50.01L49.107 14.7795H48.204L47 10.2795H47.903L48.7057 13.6795H48.806L49.709 10.2795H50.612L51.5151 13.6795H51.6154L52.4181 10.2795H53.3211L51.9164 14.7795Z" fill="white"/>
<path d="M54 10.3904H54.903V11.0904H55.0033C55.204 10.5904 55.806 10.2904 56.3077 10.2904C57.1104 10.1904 57.8127 10.7904 57.913 11.6904C57.913 11.7904 57.913 11.8904 57.913 11.9904V14.8904H57.01V12.1904C57.01 11.4904 56.709 11.0904 56.0067 11.0904C55.4047 11.0904 54.903 11.4904 54.903 12.0904C54.903 12.1904 54.903 12.1904 54.903 12.2904V14.8904H54V10.3904Z" fill="white"/>
<path d="M60 8.27954H60.903V14.5795H60V8.27954Z" fill="white"/>
<path d="M62.0084 12.588C61.9081 11.388 62.7108 10.388 63.9148 10.288C65.1188 10.188 66.1222 10.988 66.2225 12.188C66.2225 12.288 66.2225 12.488 66.2225 12.588C66.3228 13.788 65.5202 14.788 64.3161 14.888C63.1121 14.988 62.1088 14.188 62.0084 12.988C62.0084 12.888 62.0084 12.788 62.0084 12.588ZM65.4198 12.588C65.4198 11.588 65.0185 11.088 64.2158 11.088C63.4131 11.088 63.0118 11.688 63.0118 12.588C63.0118 13.588 63.4131 14.188 64.2158 14.188C64.9181 14.188 65.4198 13.588 65.4198 12.588Z" fill="white"/>
<path d="M67.1003 13.5795C67.1003 12.7795 67.7023 12.2795 68.806 12.2795L70.01 12.1795V11.7795C70.01 11.2795 69.709 11.0795 69.107 11.0795C68.6053 11.0795 68.3043 11.2795 68.204 11.5795H67.301C67.4013 10.7795 68.1037 10.2795 69.107 10.2795C70.2107 10.2795 70.913 10.8795 70.913 11.7795V14.8795H70.01V14.2795H69.9097C69.6087 14.7795 69.107 14.9795 68.505 14.9795C67.8027 15.0795 67.1003 14.4795 67 13.7795C67.1003 13.6795 67.1003 13.6795 67.1003 13.5795ZM70.01 13.1795V12.7795L68.9063 12.8795C68.3043 12.8795 68.0033 13.1795 68.0033 13.4795C68.0033 13.8795 68.4047 14.0795 68.806 14.0795C69.408 14.2795 69.9097 13.8795 70.01 13.1795C70.01 13.2795 70.01 13.2795 70.01 13.1795Z" fill="white"/>
<path d="M72 12.2795C72 10.8795 72.7023 9.97954 73.9063 9.97954C74.5084 9.97954 75.01 10.2795 75.311 10.7795H75.4114V8.27954H76.3144V14.5795H75.4114V13.8795H75.311C75.01 14.3795 74.5084 14.6795 73.9063 14.6795C72.8027 14.6795 72 13.7795 72 12.2795ZM73.0033 12.2795C73.0033 13.2795 73.505 13.7795 74.2074 13.7795C74.9097 13.7795 75.4114 13.1795 75.4114 12.2795C75.4114 11.3795 74.9097 10.7795 74.2074 10.7795C73.4047 10.7795 73.0033 11.3795 73.0033 12.2795Z" fill="white"/>
<path d="M80.0084 12.588C79.9081 11.388 80.7108 10.388 81.9148 10.288C83.1188 10.188 84.1222 10.988 84.2225 12.188C84.2225 12.288 84.2225 12.488 84.2225 12.588C84.3228 13.788 83.5202 14.788 82.3161 14.888C81.1121 14.988 80.1088 14.188 80.0084 12.988C80.0084 12.888 80.0084 12.788 80.0084 12.588ZM83.4198 12.588C83.4198 11.588 83.0185 11.088 82.2158 11.088C81.4131 11.088 81.0118 11.688 81.0118 12.588C81.0118 13.588 81.4131 14.188 82.2158 14.188C82.9182 14.188 83.4198 13.588 83.4198 12.588Z" fill="white"/>
<path d="M85 10.3904H85.903V11.0904H86.0033C86.204 10.5904 86.806 10.2904 87.3077 10.2904C88.1104 10.1904 88.8127 10.7904 88.913 11.6904C88.913 11.7904 88.913 11.8904 88.913 11.9904V14.8904H88.01V12.1904C88.01 11.4904 87.709 11.0904 87.0067 11.0904C86.4047 11.0904 85.903 11.4904 85.903 12.0904C85.903 12.1904 85.903 12.1904 85.903 12.2904V14.8904H85V10.3904Z" fill="white"/>
<path d="M93.7057 9.27954V10.3795H94.709V11.1795H93.7057V13.4795C93.7057 13.9795 93.9064 14.1795 94.3077 14.1795C94.408 14.1795 94.5084 14.1795 94.6087 14.1795V14.8795C94.408 14.8795 94.3077 14.8795 94.107 14.8795C93.1037 14.8795 92.7023 14.5795 92.7023 13.6795V11.1795H92V10.4795H92.7023V9.27954H93.7057Z" fill="white"/>
<path d="M96 8.27954H96.903V10.7795H97.0033C97.204 10.2795 97.806 9.87954 98.408 9.97954C99.2107 9.97954 99.913 10.5795 100.013 11.3795C100.013 11.4795 100.013 11.5795 100.013 11.6795V14.5795H99.1104V11.8795C99.1104 11.1795 98.8094 10.7795 98.107 10.7795C97.505 10.7795 97.0033 11.1795 97.0033 11.7795C97.0033 11.8795 97.0033 11.8795 97.0033 11.9795V14.5795H96.1003L96 8.27954Z" fill="white"/>
<path d="M105.144 13.5795C104.944 14.3795 104.041 14.9795 103.138 14.8795C102.034 14.8795 101.031 13.9795 101.031 12.8795C101.031 12.7795 101.031 12.6795 101.031 12.5795C100.83 11.4795 101.633 10.3795 102.837 10.2795C102.937 10.2795 103.037 10.2795 103.138 10.2795C104.442 10.2795 105.144 11.1795 105.144 12.5795V12.8795H101.934C101.833 13.5795 102.335 14.0795 103.037 14.1795H103.138C103.539 14.2795 104.041 13.9795 104.241 13.6795L105.144 13.5795ZM101.934 12.0795H104.241C104.241 11.4795 103.84 10.9795 103.238 10.8795H103.138C102.536 10.9795 101.934 11.4795 101.934 12.0795Z" fill="white"/>
</svg>
