<svg width="135" height="41" viewBox="0 0 135 41" fill="none" xmlns="http://www.w3.org/2000/svg">
<path d="M130 40.2795H5C2.2 40.2795 0 38.0795 0 35.2795V5.27954C0 2.47954 2.2 0.279541 5 0.279541H130C132.8 0.279541 135 2.47954 135 5.27954V35.2795C135 37.9795 132.8 40.2795 130 40.2795Z" fill="black"/>
<path d="M130 1.07954C132.3 1.07954 134.2 2.97954 134.2 5.27954V35.2795C134.2 37.5795 132.3 39.4795 130 39.4795H5C2.7 39.4795 0.8 37.5795 0.8 35.2795V5.27954C0.8 2.97954 2.7 1.07954 5 1.07954H130ZM130 0.279541H5C2.2 0.279541 0 2.47954 0 5.27954V35.2795C0 38.0795 2.2 40.2795 5 40.2795H130C132.8 40.2795 135 38.0795 135 35.2795V5.27954C135 2.57954 132.8 0.279541 130 0.279541Z" fill="#A6A6A6"/>
<path d="M47 10.5795C47 11.3795 46.8 12.0795 46.3 12.5795C45.7 13.1795 45 13.4795 44.1 13.4795C43.2 13.4795 42.5 13.1795 41.9 12.5795C41.3 11.9795 41 11.2795 41 10.3795C41 9.47954 41.3 8.77954 41.9 8.17954C42.5 7.57954 43.2 7.27954 44.1 7.27954C44.5 7.27954 44.9 7.37954 45.3 7.57954C45.7 7.77954 46 7.97954 46.2 8.27954L45.7 8.77954C45.3 8.27954 44.8 8.07954 44.1 8.07954C43.5 8.07954 42.9 8.27954 42.5 8.77954C42 9.17954 41.8 9.77954 41.8 10.4795C41.8 11.1795 42 11.7795 42.5 12.1795C43 12.5795 43.5 12.8795 44.1 12.8795C44.8 12.8795 45.3 12.6795 45.8 12.1795C46.1 11.8795 46.3 11.4795 46.3 10.9795H44.1V10.2795H47C47 10.2795 47 10.4795 47 10.5795Z" fill="white" stroke="white" stroke-width="0.2" stroke-miterlimit="10"/>
<path d="M51.5 7.97954H48.8V9.87954H51.3V10.5795H48.8V12.4795H51.5V13.2795H48V7.27954H51.5V7.97954Z" fill="white" stroke="white" stroke-width="0.2" stroke-miterlimit="10"/>
<path d="M54.5 13.2795H53.7V7.97954H52V7.27954H56.2V7.97954H54.5V13.2795Z" fill="white" stroke="white" stroke-width="0.2" stroke-miterlimit="10"/>
<path d="M60 13.2795V7.27954H60.8V13.2795H60Z" fill="white" stroke="white" stroke-width="0.2" stroke-miterlimit="10"/>
<path d="M63.5 13.2795H62.7V7.97954H61V7.27954H65.1V7.97954H63.4V13.2795H63.5Z" fill="white" stroke="white" stroke-width="0.2" stroke-miterlimit="10"/>
<path d="M73.3 12.5795C72.7 13.1795 72 13.4795 71.1 13.4795C70.2 13.4795 69.5 13.1795 68.9 12.5795C68.3 11.9795 68 11.2795 68 10.3795C68 9.47954 68.3 8.77954 68.9 8.17954C69.5 7.57954 70.2 7.27954 71.1 7.27954C72 7.27954 72.7 7.57954 73.3 8.17954C73.9 8.77954 74.2 9.47954 74.2 10.3795C74.2 11.2795 73.9 11.9795 73.3 12.5795ZM69.5 12.0795C69.9 12.4795 70.5 12.7795 71.1 12.7795C71.7 12.7795 72.3 12.5795 72.7 12.0795C73.1 11.6795 73.4 11.0795 73.4 10.3795C73.4 9.67954 73.2 9.07954 72.7 8.67954C72.3 8.27954 71.7 7.97954 71.1 7.97954C70.5 7.97954 69.9 8.17954 69.5 8.67954C69.1 9.07954 68.8 9.67954 68.8 10.3795C68.8 11.0795 69 11.6795 69.5 12.0795Z" fill="white" stroke="white" stroke-width="0.2" stroke-miterlimit="10"/>
<path d="M75 13.2795V7.27954H75.9L78.8 11.9795V10.7795V7.27954H79.6V13.2795H78.8L75.7 8.37954V9.57954V13.2795H75Z" fill="white" stroke="white" stroke-width="0.2" stroke-miterlimit="10"/>
<path d="M68 21.9795C65.6 21.9795 63.7 23.7795 63.7 26.2795C63.7 28.6795 65.6 30.5795 68 30.5795C70.4 30.5795 72.3 28.7795 72.3 26.2795C72.3 23.6795 70.4 21.9795 68 21.9795ZM68 28.7795C66.7 28.7795 65.6 27.6795 65.6 26.1795C65.6 24.6795 66.7 23.5795 68 23.5795C69.3 23.5795 70.4 24.5795 70.4 26.1795C70.4 27.6795 69.3 28.7795 68 28.7795ZM58.7 21.9795C56.3 21.9795 54.4 23.7795 54.4 26.2795C54.4 28.6795 56.3 30.5795 58.7 30.5795C61.1 30.5795 63 28.7795 63 26.2795C63 23.6795 61.1 21.9795 58.7 21.9795ZM58.7 28.7795C57.4 28.7795 56.3 27.6795 56.3 26.1795C56.3 24.6795 57.4 23.5795 58.7 23.5795C60 23.5795 61.1 24.5795 61.1 26.1795C61.1 27.6795 60 28.7795 58.7 28.7795ZM47.6 23.2795V25.0795H51.9C51.8 26.0795 51.4 26.8795 50.9 27.3795C50.3 27.9795 49.3 28.6795 47.6 28.6795C44.9 28.6795 42.9 26.5795 42.9 23.8795C42.9 21.1795 45 19.0795 47.6 19.0795C49 19.0795 50.1 19.6795 50.9 20.3795L52.2 19.0795C51.1 18.0795 49.7 17.2795 47.7 17.2795C44.1 17.2795 41 20.2795 41 23.8795C41 27.4795 44.1 30.4795 47.7 30.4795C49.7 30.4795 51.1 29.8795 52.3 28.5795C53.5 27.3795 53.9 25.6795 53.9 24.3795C53.9 23.9795 53.9 23.5795 53.8 23.2795H47.6ZM93 24.6795C92.6 23.6795 91.6 21.9795 89.4 21.9795C87.2 21.9795 85.4 23.6795 85.4 26.2795C85.4 28.6795 87.2 30.5795 89.6 30.5795C91.5 30.5795 92.7 29.3795 93.1 28.6795L91.7 27.6795C91.2 28.3795 90.6 28.8795 89.6 28.8795C88.6 28.8795 88 28.4795 87.5 27.5795L93.2 25.1795L93 24.6795ZM87.2 26.0795C87.2 24.4795 88.5 23.5795 89.4 23.5795C90.1 23.5795 90.8 23.9795 91 24.4795L87.2 26.0795ZM82.5 30.1795H84.4V17.6795H82.5V30.1795ZM79.5 22.8795C79 22.3795 78.2 21.8795 77.2 21.8795C75.1 21.8795 73.1 23.7795 73.1 26.1795C73.1 28.5795 75 30.3795 77.2 30.3795C78.2 30.3795 79 29.8795 79.4 29.3795H79.5V29.9795C79.5 31.5795 78.6 32.4795 77.2 32.4795C76.1 32.4795 75.3 31.6795 75.1 30.9795L73.5 31.6795C74 32.7795 75.2 34.1795 77.3 34.1795C79.5 34.1795 81.3 32.8795 81.3 29.7795V22.1795H79.5V22.8795ZM77.3 28.7795C76 28.7795 74.9 27.6795 74.9 26.1795C74.9 24.6795 76 23.5795 77.3 23.5795C78.6 23.5795 79.6 24.6795 79.6 26.1795C79.6 27.6795 78.6 28.7795 77.3 28.7795ZM101.7 17.6795H97.2V30.1795H99.1V25.4795H101.7C103.8 25.4795 105.8 23.9795 105.8 21.5795C105.8 19.1795 103.8 17.6795 101.7 17.6795ZM101.8 23.6795H99.1V19.3795H101.8C103.2 19.3795 104 20.5795 104 21.4795C103.9 22.5795 103.1 23.6795 101.8 23.6795ZM113.3 21.8795C111.9 21.8795 110.5 22.4795 110 23.7795L111.7 24.4795C112.1 23.7795 112.7 23.5795 113.4 23.5795C114.4 23.5795 115.3 24.1795 115.4 25.1795V25.2795C115.1 25.0795 114.3 24.7795 113.5 24.7795C111.7 24.7795 109.9 25.7795 109.9 27.5795C109.9 29.2795 111.4 30.3795 113 30.3795C114.3 30.3795 114.9 29.7795 115.4 29.1795H115.5V30.1795H117.3V25.3795C117.1 23.1795 115.4 21.8795 113.3 21.8795ZM113.1 28.7795C112.5 28.7795 111.6 28.4795 111.6 27.6795C111.6 26.6795 112.7 26.3795 113.6 26.3795C114.4 26.3795 114.8 26.5795 115.3 26.7795C115.1 27.9795 114.1 28.7795 113.1 28.7795ZM123.6 22.1795L121.5 27.5795H121.4L119.2 22.1795H117.2L120.5 29.7795L118.6 33.9795H120.5L125.6 22.1795H123.6ZM106.8 30.1795H108.7V17.6795H106.8V30.1795Z" fill="white"/>
<path d="M10.5 7.27954C10.2 7.57954 10 8.07954 10 8.67954V30.7795C10 31.3795 10.2 31.8795 10.5 32.1795L10.6 32.2795L23 19.8795V19.7795V19.6795L10.5 7.27954Z" fill="url(#paint0_linear)"/>
<path d="M27.1 24.7288L23 20.6288V20.4288V20.3288L27.0566 16.2795L27.1738 16.3499L32.1 19.1288C33.5 19.9288 33.5 21.2288 32.1 22.0288L27.1 24.7288Z" fill="url(#paint1_linear)"/>
<path d="M27.7 24.4795L23.5 20.2795L11 32.7795C11.5 33.2795 12.2 33.2795 13.1 32.8795L27.7 24.4795Z" fill="url(#paint2_linear)"/>
<path d="M27.7 15.9083L13.1 7.60827C12.2 7.10827 11.5 7.20827 11 7.70827L23.5 20.1083L27.7 15.9083Z" fill="url(#paint3_linear)"/>
<path opacity="0.2" d="M26.6 24.2795L12.1 32.4795C11.3 32.9795 10.6 32.8795 10.1 32.4795L10 32.5795L10.1 32.6795C10.6 33.0795 11.3 33.1795 12.1 32.6795L26.6 24.2795Z" fill="black"/>
<path opacity="0.12" d="M10.4 32.6795C10.1 32.3795 10 31.8795 10 31.2795V31.3795C10 31.9795 10.2 32.4795 10.5 32.7795V32.6795H10.4Z" fill="black"/>
<path opacity="0.12" d="M32 21.5795L27 24.3795L27.1 24.4795L32 21.6795C32.7 21.2795 33 20.7795 33 20.2795C33 20.7795 32.6 21.1795 32 21.5795Z" fill="black"/>
<path opacity="0.25" d="M12.5 7.71194L32 18.8119C32.6 19.2119 33 19.6119 33 20.1119C33 19.6119 32.7 19.1119 32 18.7119L12.5 7.61194C11.1 6.81194 10 7.51194 10 9.11194V9.21194C10 7.61194 11.1 6.91194 12.5 7.71194Z" fill="white"/>
<defs>
<linearGradient id="paint0_linear" x1="21.8997" y1="8.48924" x2="5.1173" y2="25.2716" gradientUnits="userSpaceOnUse">
<stop stop-color="#00A0FF"/>
<stop offset="0.00657445" stop-color="#00A1FF"/>
<stop offset="0.2601" stop-color="#00BEFF"/>
<stop offset="0.5122" stop-color="#00D2FF"/>
<stop offset="0.7604" stop-color="#00DFFF"/>
<stop offset="1" stop-color="#00E3FF"/>
</linearGradient>
<linearGradient id="paint1_linear" x1="33.9344" y1="20.4302" x2="9.7375" y2="20.4302" gradientUnits="userSpaceOnUse">
<stop stop-color="#FFE000"/>
<stop offset="0.4087" stop-color="#FFBD00"/>
<stop offset="0.7754" stop-color="#FFA500"/>
<stop offset="1" stop-color="#FF9C00"/>
</linearGradient>
<linearGradient id="paint2_linear" x1="25.427" y1="22.5756" x2="2.6687" y2="45.3339" gradientUnits="userSpaceOnUse">
<stop stop-color="#FF3A44"/>
<stop offset="1" stop-color="#C31162"/>
</linearGradient>
<linearGradient id="paint3_linear" x1="7.8973" y1="0.284466" x2="18.0599" y2="10.447" gradientUnits="userSpaceOnUse">
<stop stop-color="#32A071"/>
<stop offset="0.0685" stop-color="#2DA771"/>
<stop offset="0.4762" stop-color="#15CF74"/>
<stop offset="0.8009" stop-color="#06E775"/>
<stop offset="1" stop-color="#00F076"/>
</linearGradient>
</defs>
</svg>
