<svg width="39" height="60" viewBox="0 0 39 60" fill="none" xmlns="http://www.w3.org/2000/svg">
<path d="M34.2857 0H4.28571C3.14907 0 2.05898 0.451529 1.25526 1.25526C0.45153 2.05898 0 3.14907 0 4.28571V55.7143C0 56.8509 0.45153 57.941 1.25526 58.7447C2.05898 59.5485 3.14907 60 4.28571 60H34.2857C35.4224 60 36.5124 59.5485 37.3162 58.7447C38.1199 57.941 38.5714 56.8509 38.5714 55.7143V4.28571C38.5714 3.14907 38.1199 2.05898 37.3162 1.25526C36.5124 0.451529 35.4224 0 34.2857 0ZM21.4286 55.7143H17.1429V51.4286H21.4286V55.7143ZM4.28571 47.1429V4.28571H34.2857V47.1429H4.28571Z" fill="#FF5134"/>
</svg>
