<svg width="42" height="60" viewBox="0 0 42 60" fill="none" xmlns="http://www.w3.org/2000/svg">
<path fill-rule="evenodd" clip-rule="evenodd" d="M5.9918 5.85128C2.416 9.37774 0.312314 14.1675 0.116786 19.2278C0.0393831 19.981 0.000399286 20.7379 0 21.4952C0.00536891 22.189 0.066472 22.8812 0.182673 23.5648C0.988168 31.7977 10.8248 48.7595 17.3496 57.595C19.4457 60.4498 21.4579 61.1499 24.1319 57.5554C30.6867 48.7291 40.4634 31.7886 41.2689 23.5679C41.387 22.8834 41.4491 22.1901 41.4545 21.4952C41.4542 20.7338 41.4152 19.9729 41.3378 19.2156C41.1352 14.1531 39.0177 9.36553 35.4268 5.85128C31.4194 2.08921 26.1645 0 20.7093 0C15.2541 0 9.99922 2.08921 5.9918 5.85128ZM20.7303 7.55263C23.0163 7.55523 25.2504 8.2448 27.1519 9.53462C29.0533 10.8244 30.537 12.6569 31.4165 14.8016C32.2959 16.9463 32.5319 19.3074 32.0946 21.588C31.6573 23.8686 30.5664 25.9668 28.9589 27.6189C27.8946 28.7409 26.6153 29.6293 25.2001 30.2292C23.7848 30.8291 22.2636 31.1278 20.7303 31.1068C19.2085 31.1315 17.6982 30.8341 16.2956 30.2337C14.8929 29.6332 13.6284 28.7427 12.5825 27.6189C11.4971 26.5305 10.6352 25.2338 10.0469 23.804C9.45866 22.3742 9.15574 20.8399 9.15574 19.2901C9.15574 17.7404 9.45866 16.2061 10.0469 14.7763C10.6352 13.3465 11.4971 12.0498 12.5825 10.9614C13.639 9.85703 14.9072 8.9847 16.3087 8.39837C17.7101 7.81205 19.215 7.5242 20.7303 7.55263Z" fill="#FF5134"/>
</svg>
