<svg width="60" height="48" viewBox="0 0 60 48" fill="none" xmlns="http://www.w3.org/2000/svg">
<path d="M60 13.6135C58.8402 12.7372 47.2938 3.30418 30 3.30418C26.5979 3.30418 23.4278 3.665 20.4897 4.28356L46.5722 30.366L60 13.6135ZM9.69072 0.75263C9.45211 0.514017 9.16883 0.324739 8.85707 0.195602C8.54531 0.0664656 8.21116 3.55561e-09 7.87371 0C7.53626 -3.55561e-09 7.20212 0.0664656 6.89035 0.195602C6.57859 0.324739 6.29531 0.514017 6.0567 0.75263C5.81809 0.991244 5.62881 1.27452 5.49967 1.58628C5.37054 1.89805 5.30407 2.23219 5.30407 2.56964C5.30407 2.90709 5.37054 3.24124 5.49967 3.553C5.62881 3.86476 5.81809 4.14804 6.0567 4.38665L9.53608 7.86603C3.99484 10.4176 0.592784 13.1495 0 13.6135L25.9794 45.9846C28.0412 48.5619 31.9588 48.5619 34.0206 45.9846L40.0773 38.433L46.8041 45.1599C47.286 45.6418 47.9396 45.9125 48.6211 45.9125C49.3026 45.9125 49.9562 45.6418 50.4381 45.1599C50.92 44.6779 51.1908 44.0244 51.1908 43.3428C51.1908 42.6613 50.92 42.0077 50.4381 41.5258L9.69072 0.75263Z" fill="#FF5134"/>
</svg>
