<svg width="61" height="60" viewBox="0 0 61 60" fill="none" xmlns="http://www.w3.org/2000/svg">
<path d="M59.9976 19.982C59.9585 20.5679 59.7728 21.1343 59.4404 21.6812C59.1081 22.228 58.6878 22.5015 58.1795 22.5015H38.8254C37.8871 22.5405 37.4374 21.8765 37.4765 20.5094L44.8662 13.1268C40.6044 9.37698 35.6584 7.50205 30.0281 7.50205C25.9618 7.50205 22.1985 8.50787 18.7383 10.5195C15.278 12.5311 12.541 15.2654 10.5274 18.7223C8.51383 22.1792 7.50703 25.9486 7.50703 30.0305C7.50703 34.1123 8.51383 37.872 10.5274 41.3093C12.541 44.7467 15.278 47.4712 18.7383 49.4828C22.1985 51.4945 25.9618 52.5003 30.0281 52.5003C33.4688 52.5003 36.7043 51.7679 39.7345 50.3031C42.7647 48.8383 45.3354 46.8169 47.4468 44.2389L53.3703 48.8676C50.5552 52.344 47.1144 55.0686 43.0481 57.0411C38.9818 59.0137 34.6418 60 30.0281 60C25.9618 60 22.0715 59.209 18.357 57.627C14.6426 56.0451 11.4463 53.9162 8.76798 51.2406C6.08969 48.5649 3.95879 45.3717 2.37527 41.6609C0.791757 37.9501 0 34.0635 0 30.0012C0 25.9388 0.791757 22.062 2.37527 18.3708C3.95879 14.6795 6.08969 11.496 8.76798 8.82036C11.4463 6.14468 14.6426 4.01586 18.357 2.43389C22.0715 0.85192 25.9618 0.0609351 30.0281 0.0609351C33.8207 0.0609351 37.4472 0.744502 40.9075 2.11164C44.3677 3.47877 47.4663 5.39276 50.2033 7.8536L58.0622 0.00234366C59.4307 -0.0367173 60.0954 0.412484 60.0563 1.34995L59.9976 19.982Z" fill="#FF5134"/>
</svg>
