<svg width="60" height="56" viewBox="0 0 60 56" fill="none" xmlns="http://www.w3.org/2000/svg">
<path d="M38.4734 52.3229C38.4769 53.0026 38.2905 53.6696 37.9355 54.2471C37.5805 54.8247 37.0714 55.2893 36.4666 55.5877C36.0039 55.8142 35.4964 55.9319 34.9823 55.9322C34.1654 55.9307 33.3756 55.6359 32.7542 55.1005L13.6606 38.7578H3.49151C3.02779 38.7526 2.56965 38.6551 2.14323 38.471C1.71682 38.2869 1.33049 38.0198 1.0063 37.685C0.682113 37.3501 0.426422 36.954 0.253827 36.5193C0.0812321 36.0847 -0.00488623 35.6199 0.000390011 35.1516V20.7921C-0.00651685 20.3226 0.0783746 19.8564 0.250201 19.4201C0.422026 18.9838 0.677409 18.5861 1.00172 18.2496C1.32603 17.9132 1.71288 17.6447 2.14013 17.4595C2.56737 17.2743 3.0266 17.1761 3.49151 17.1704H13.6606L32.7542 0.830841C33.2592 0.394052 33.8792 0.115344 34.5385 0.0288103C35.1979 -0.0577237 35.8679 0.0516674 36.4666 0.343603C37.0714 0.642002 37.5805 1.10667 37.9355 1.68419C38.2905 2.26172 38.4769 2.92868 38.4734 3.60841V52.3229ZM51.8939 46.6871C51.8078 46.6871 51.728 46.6871 51.6419 46.6871C51.1832 46.685 50.7296 46.5906 50.3074 46.4095C49.8853 46.2283 49.5032 45.964 49.1834 45.6319L48.7162 45.1478C48.1221 44.5296 47.7625 43.7198 47.7007 42.8606C47.6389 42.0014 47.8787 41.1476 48.3782 40.4492C51.0648 36.6872 52.4655 32.1442 52.3684 27.507C52.2714 22.8698 50.6819 18.3906 47.8404 14.7466C47.2958 14.0511 47.0193 13.1797 47.0623 12.2941C47.1052 11.4085 47.4647 10.5686 48.0739 9.93009L48.5411 9.44906C48.8796 9.09054 49.2914 8.81074 49.7478 8.62906C50.2042 8.44739 50.6943 8.3682 51.184 8.397C51.6739 8.42394 52.1526 8.55541 52.5886 8.78275C53.0245 9.0101 53.4078 9.32815 53.7132 9.71595C57.6566 14.7477 59.8623 20.9438 59.9938 27.3594C60.1253 33.775 58.1754 40.0579 54.4416 45.2502C54.1453 45.6615 53.7639 46.0027 53.324 46.2503C52.8841 46.4979 52.3961 46.6458 51.8939 46.684V46.6871Z" fill="#FF5134"/>
</svg>
